<svg width="15" height="15" viewBox="0 0 15 15" fill="none" xmlns="http://www.w3.org/2000/svg">
<path d="M1.66667 0H0V1.66667H1.66667V0ZM3.33333 0H5V1.66667H3.33333V0ZM8.33333 0H6.66667V1.66667H8.33333V0ZM10 0H11.6667V1.66667H10V0ZM13.3333 0H15V1.66667H13.3333V0ZM0 3.33333H1.66667V5H0V3.33333ZM1.66667 6.66667H0V8.33333H1.66667V6.66667ZM0 10H1.66667V11.6667H0V10ZM1.66667 13.3333H0V15H1.66667V13.3333ZM3.33333 13.3333H5V15H3.33333V13.3333ZM8.33333 13.3333H6.66667V15H8.33333V13.3333ZM13.3333 6.66667H15V8.33333H13.3333V6.66667ZM15 3.33333H13.3333V5H15V3.33333ZM10 11.6667V10H15V11.6667H13.3333V13.3333H11.6667V15H10V11.6667ZM13.3333 13.3333V15H15V13.3333H13.3333Z" fill="#666666"/>
</svg>
