<svg width="16" height="16" viewBox="0 0 16 16" fill="none" xmlns="http://www.w3.org/2000/svg">
<path opacity="0.5" d="M12.6673 4H3.33398C2.80355 4 2.29484 4.21071 1.91977 4.58579C1.5447 4.96086 1.33398 5.46957 1.33398 6V7.81333L5.89198 9.33333H10.1093L14.6673 7.81333V6C14.6673 5.46957 14.4566 4.96086 14.0815 4.58579C13.7065 4.21071 13.1978 4 12.6673 4Z" fill="#888888"/>
<path d="M6.66732 4V3.33333H9.33398V4H10.6673V3.33333C10.6673 2.97971 10.5268 2.64057 10.2768 2.39052C10.0267 2.14048 9.68761 2 9.33398 2H6.66732C6.3137 2 5.97456 2.14048 5.72451 2.39052C5.47446 2.64057 5.33398 2.97971 5.33398 3.33333V4H6.66732ZM5.89198 9.33333L1.33398 7.81333V12C1.33451 12.5303 1.5454 13.0387 1.92036 13.4136C2.29531 13.7886 2.80371 13.9995 3.33398 14H12.6673C13.1976 13.9995 13.706 13.7886 14.0809 13.4136C14.4559 13.0387 14.6668 12.5303 14.6673 12V7.81333L10.1093 9.33333H5.89198Z" fill="#888888"/>
</svg>
