<svg width="15" height="12" viewBox="0 0 15 12" fill="none" xmlns="http://www.w3.org/2000/svg">
<path d="M7.02503 7.0096L6.27969 7.75494L7.02344 9.24244L7.75522 8.47L7.02503 7.0096ZM7.49931 10.1942L8.19616 11.5879L8.92797 10.8154L8.23109 9.42172L7.49931 10.1942ZM13.2164 4.15941L12.4937 4.92229L13.882 5.58622L14.6047 4.82335L13.2164 4.15941ZM10.2063 3.82829L11.5457 4.46888L12.2685 3.70604L10.9562 3.07841L10.2063 3.82829ZM9.11828 8.48522L10.0096 9.67369L10.7073 8.93729L9.81594 7.74882L9.11828 8.48522ZM9.20728 6.93729L8.30303 5.7316L7.58875 6.44588L8.50963 7.67369L9.20728 6.93729ZM8.89822 5.13641L10.0446 6.0535L10.7347 5.32497L9.60969 4.42494L8.89822 5.13641ZM10.8282 6.68038L11.9757 7.59841L12.6658 6.86988L11.5183 5.95188L10.8282 6.68038ZM10.3965 0.974004L9.57647 1.79397L8.80403 1.02154C8.14994 0.367457 7.26281 0 6.3378 0C5.41278 0 4.52565 0.367457 3.87156 1.02154C3.86087 1.03219 3.85053 1.04307 3.84003 1.05385C3.47512 0.796775 3.04661 0.644876 2.60127 0.614727C2.15592 0.584578 1.71085 0.677339 1.31462 0.882885C0.918399 1.08843 0.586247 1.39887 0.354418 1.78031C0.122588 2.16175 -1.10672e-05 2.59954 7.49323e-10 3.04591V10.5775H1V3.04591C0.999994 2.78403 1.07156 2.52714 1.20697 2.30298C1.34238 2.07883 1.53648 1.89596 1.76829 1.77412C2.0001 1.65228 2.2608 1.59612 2.52221 1.6117C2.78363 1.62729 3.03581 1.71402 3.2515 1.86254C2.90554 2.52164 2.77912 3.274 2.89066 4.00997C3.00219 4.74594 3.34586 5.42707 3.87156 5.95407L4.64397 6.72647L3.89647 7.47401L4.52147 8.09901L11.0215 1.599L10.3965 0.974004ZM5.28144 5.94975L4.57866 5.24697C4.11663 4.77949 3.85838 4.14816 3.8603 3.49088C3.86223 2.83361 4.12418 2.2038 4.58893 1.73903C5.05369 1.27426 5.68349 1.01229 6.34076 1.01034C6.99803 1.00839 7.62937 1.26662 8.09688 1.72863L8.79966 2.43144L5.28144 5.94975Z" fill="#885EFF"/>
</svg>
