<svg width="12" height="8" viewBox="0 0 12 8" fill="none" xmlns="http://www.w3.org/2000/svg">
<path d="M0 7V4C0 3.80267 0.0568889 3.59244 0.170667 3.36933C0.284444 3.14622 0.449778 2.97867 0.666667 2.86667V1.33333C0.666667 0.957333 0.794889 0.641111 1.05133 0.384667C1.30778 0.128222 1.624 0 2 0H5C5.22978 0 5.426 0.0473332 5.58867 0.142C5.75089 0.236222 5.888 0.366667 6 0.533333C6.112 0.366667 6.24911 0.236222 6.41133 0.142C6.574 0.0473332 6.77022 0 7 0H10C10.376 0 10.6922 0.128222 10.9487 0.384667C11.2051 0.641111 11.3333 0.957333 11.3333 1.33333V2.86667C11.5507 2.97867 11.716 3.14622 11.8293 3.36933C11.9431 3.59244 12 3.80267 12 4V7C12 7.09467 11.968 7.17378 11.904 7.23733C11.84 7.30089 11.7607 7.33289 11.666 7.33333C11.5713 7.33378 11.4922 7.30178 11.4287 7.23733C11.3651 7.17289 11.3333 7.09378 11.3333 7V6H0.666667V7C0.666667 7.09467 0.634667 7.17378 0.570667 7.23733C0.506667 7.30089 0.427333 7.33289 0.332667 7.33333C0.238 7.33378 0.158889 7.30178 0.0953333 7.23733C0.0317777 7.17289 0 7.09378 0 7ZM6.33333 2.66667H10.6667V1.33333C10.6667 1.14444 10.6027 0.986222 10.4747 0.858667C10.3467 0.731111 10.1884 0.667111 10 0.666667H7C6.81111 0.666667 6.65289 0.730667 6.52533 0.858667C6.39778 0.986667 6.33378 1.14489 6.33333 1.33333V2.66667ZM1.33333 2.66667H5.66667V1.33333C5.66667 1.14444 5.60267 0.986222 5.47467 0.858667C5.34667 0.731111 5.18844 0.667111 5 0.666667H2C1.81111 0.666667 1.65289 0.730667 1.52533 0.858667C1.39778 0.986667 1.33378 1.14489 1.33333 1.33333V2.66667ZM0.666667 5.33333H11.3333V4C11.3333 3.81111 11.2693 3.65289 11.1413 3.52533C11.0133 3.39778 10.8551 3.33378 10.6667 3.33333H1.33333C1.14444 3.33333 0.986222 3.39733 0.858667 3.52533C0.731111 3.65333 0.667111 3.81156 0.666667 4V5.33333Z" fill="#885EFF"/>
</svg>
