<svg width="24" height="24" viewBox="0 0 24 24" fill="none" xmlns="http://www.w3.org/2000/svg">
<path d="M16.9228 15.0201C16.8201 14.6268 16.6201 14.2601 16.3228 13.9201C16.0255 13.5788 15.6471 13.3234 15.1878 13.1541L8.19579 10.5341C8.10512 10.5008 8.01512 10.4804 7.92579 10.4731C7.83646 10.4658 7.73412 10.4618 7.61879 10.4611H6.99979V8.1211C6.99979 7.86443 7.05879 7.6171 7.17679 7.3791C7.29479 7.14043 7.46146 6.94877 7.67679 6.8041L12.5618 3.3251C12.7111 3.2191 12.8638 3.14277 13.0198 3.0961C13.1758 3.0501 13.3351 3.0271 13.4978 3.0271C13.6605 3.0271 13.8238 3.05043 13.9878 3.0971C14.1518 3.14377 14.3018 3.21977 14.4378 3.3251L19.3228 6.8041C19.5381 6.94877 19.7048 7.14043 19.8228 7.3791C19.9408 7.61777 19.9998 7.86477 19.9998 8.1201V15.0181L16.9228 15.0201ZM14.4998 8.4411C14.6078 8.4411 14.7021 8.4011 14.7828 8.3211C14.8628 8.23977 14.9028 8.1451 14.9028 8.0371C14.9028 7.9291 14.8628 7.8351 14.7828 7.7551C14.7021 7.67377 14.6078 7.6331 14.4998 7.6331C14.3918 7.6331 14.2975 7.67377 14.2168 7.7551C14.1368 7.83577 14.0968 7.92977 14.0968 8.0371C14.0968 8.14443 14.1368 8.23877 14.2168 8.3201C14.2975 8.40077 14.3918 8.4411 14.4998 8.4411ZM12.4998 8.4411C12.6078 8.4411 12.7021 8.4011 12.7828 8.3211C12.8628 8.23977 12.9028 8.1451 12.9028 8.0371C12.9028 7.9291 12.8628 7.8351 12.7828 7.7551C12.7021 7.67377 12.6078 7.6331 12.4998 7.6331C12.3918 7.6331 12.2975 7.67377 12.2168 7.7551C12.1368 7.83577 12.0968 7.92977 12.0968 8.0371C12.0968 8.14443 12.1368 8.23877 12.2168 8.3201C12.2975 8.40077 12.3918 8.4411 12.4998 8.4411ZM14.4998 10.4411C14.6078 10.4411 14.7021 10.4011 14.7828 10.3211C14.8628 10.2398 14.9028 10.1451 14.9028 10.0371C14.9028 9.9291 14.8628 9.8351 14.7828 9.7551C14.7021 9.67377 14.6078 9.6331 14.4998 9.6331C14.3918 9.6331 14.2975 9.67377 14.2168 9.7551C14.1368 9.83577 14.0968 9.92977 14.0968 10.0371C14.0968 10.1444 14.1368 10.2388 14.2168 10.3201C14.2975 10.4008 14.3918 10.4411 14.4998 10.4411ZM12.4998 10.4411C12.6078 10.4411 12.7021 10.4011 12.7828 10.3211C12.8628 10.2398 12.9028 10.1451 12.9028 10.0371C12.9028 9.9291 12.8628 9.8351 12.7828 9.7551C12.7021 9.67377 12.6078 9.6331 12.4998 9.6331C12.3918 9.6331 12.2975 9.67377 12.2168 9.7551C12.1368 9.83577 12.0968 9.92977 12.0968 10.0371C12.0968 10.1444 12.1368 10.2388 12.2168 10.3201C12.2975 10.4008 12.3918 10.4411 12.4998 10.4411ZM13.5098 21.6711C13.6418 21.7078 13.8021 21.7238 13.9908 21.7191C14.1801 21.7151 14.3401 21.6951 14.4708 21.6591L20.9998 19.5001C20.9998 19.0361 20.8415 18.6574 20.5248 18.3641C20.2081 18.0701 19.8151 17.9231 19.3458 17.9231H14.1878C13.8558 17.9231 13.5158 17.9031 13.1678 17.8631C12.8185 17.8224 12.4928 17.7491 12.1908 17.6431L10.6188 17.1171C10.5115 17.0798 10.4328 17.0094 10.3828 16.9061C10.3328 16.8028 10.3245 16.6978 10.3578 16.5911C10.3911 16.4984 10.4585 16.4284 10.5598 16.3811C10.6611 16.3331 10.7655 16.3278 10.8728 16.3651L12.3058 16.8671C12.5778 16.9644 12.8755 17.0368 13.1988 17.0841C13.5228 17.1308 13.8738 17.1541 14.2518 17.1541H15.4538C15.6425 17.1541 15.7935 17.1001 15.9068 16.9921C16.0201 16.8841 16.0768 16.7321 16.0768 16.5361C16.0768 16.2774 15.9738 16.0078 15.7678 15.7271C15.5625 15.4464 15.3238 15.2581 15.0518 15.1621L9.03079 12.9521C8.93946 12.9241 8.84846 12.8994 8.75779 12.8781C8.66646 12.8568 8.56912 12.8461 8.46579 12.8461H6.38479V19.5831L13.5098 21.6711ZM2.38379 19.9221C2.38379 20.2288 2.48646 20.4848 2.69179 20.6901C2.89779 20.8961 3.15412 20.9991 3.46079 20.9991H4.30679C4.61346 20.9991 4.86946 20.8961 5.07479 20.6901C5.28079 20.4848 5.38379 20.2288 5.38379 19.9221V13.9221C5.38379 13.6154 5.28079 13.3594 5.07479 13.1541C4.86879 12.9481 4.61279 12.8451 4.30679 12.8451H3.46079C3.15412 12.8451 2.89779 12.9481 2.69179 13.1541C2.48646 13.3601 2.38379 13.6161 2.38379 13.9221V19.9221Z" fill="white"/>
</svg>
