<svg width="19" height="20" viewBox="0 0 19 20" fill="none" xmlns="http://www.w3.org/2000/svg">
<mask id="path-1-outside-1_1183_8371" maskUnits="userSpaceOnUse" x="-0.799805" y="-0.800049" width="20" height="21" fill="black">
<rect fill="white" x="-0.799805" y="-0.800049" width="20" height="21"/>
<path d="M11.5922 17.977C11.6562 18.0023 11.7139 18.0149 11.7652 18.0149C11.8165 18.0149 11.8742 18.0023 11.9382 17.977L17.7542 16.1849C17.7342 15.8809 17.6435 15.662 17.4822 15.528C17.3195 15.394 17.1359 15.327 16.9312 15.327H12.1862C11.7635 15.327 11.3802 15.3103 11.0362 15.277C10.6922 15.2436 10.3405 15.1643 9.9812 15.0389L8.26719 14.4869C8.13053 14.4416 8.03219 14.3516 7.97219 14.217C7.91219 14.0823 7.90486 13.9489 7.9502 13.8169C7.99553 13.6849 8.08086 13.5883 8.20619 13.527C8.33153 13.4656 8.46419 13.458 8.60419 13.504L10.1542 14.065C10.4755 14.1743 10.8315 14.2443 11.2222 14.275C11.6122 14.3056 12.0952 14.323 12.6712 14.327H12.9312C12.9312 14.0149 12.8735 13.763 12.7582 13.571C12.6429 13.379 12.4785 13.245 12.2652 13.169L6.5112 11.057C6.4732 11.0443 6.43786 11.035 6.4052 11.029C6.37253 11.023 6.33753 11.0196 6.30019 11.019H4.2002V15.827L11.5922 17.977ZM11.3372 18.965L4.2002 16.877C4.10486 17.2716 3.9032 17.5863 3.5952 17.821C3.28719 18.0556 2.95053 18.173 2.5852 18.173H1.8152C1.3712 18.173 0.991195 18.0146 0.675195 17.698C0.358529 17.382 0.200195 17.002 0.200195 16.558V11.633C0.200195 11.189 0.358195 10.809 0.674195 10.493C0.990862 10.1763 1.3712 10.018 1.8152 10.018H6.2782C6.37153 10.018 6.4672 10.0286 6.5652 10.05C6.66386 10.0706 6.75553 10.0953 6.84019 10.124L12.6192 12.241C12.9772 12.377 13.2852 12.6213 13.5432 12.974C13.8019 13.3266 13.9312 13.7773 13.9312 14.326H16.9312C17.5332 14.326 17.9945 14.5143 18.3152 14.891C18.6359 15.2683 18.7962 15.7466 18.7962 16.326C18.7962 16.526 18.7422 16.6946 18.6342 16.832C18.5262 16.9693 18.3679 17.073 18.1592 17.143L12.2752 18.958C12.1299 18.9993 11.9765 19.0233 11.8152 19.03C11.6539 19.0366 11.4942 19.0146 11.3362 18.964M1.2002 16.557C1.2002 16.737 1.25786 16.8846 1.3732 17C1.48853 17.1153 1.63586 17.173 1.8152 17.173H2.5852C2.76453 17.173 2.91186 17.125 3.0272 17.029C3.14253 16.933 3.2002 16.7756 3.2002 16.557V11.019H1.8152C1.63586 11.019 1.48853 11.0766 1.3732 11.192C1.25786 11.3073 1.2002 11.455 1.2002 11.635V16.557ZM11.2922 0.199951C11.4562 0.199951 11.6182 0.225951 11.7782 0.277951C11.9382 0.329951 12.0902 0.403285 12.2342 0.497951L17.1192 3.97695C17.3345 4.12162 17.5012 4.31328 17.6192 4.55195C17.7372 4.78995 17.7962 5.03728 17.7962 5.29395V11.442C17.7962 11.584 17.7482 11.7026 17.6522 11.798C17.5562 11.8933 17.4372 11.9413 17.2952 11.942C17.1532 11.9426 17.0345 11.8946 16.9392 11.798C16.8439 11.7013 16.7962 11.583 16.7962 11.443V5.26895C16.7962 5.16628 16.7739 5.07028 16.7292 4.98095C16.6839 4.89095 16.6165 4.81395 16.5272 4.74995L11.6422 1.34595C11.5395 1.26928 11.4242 1.23095 11.2962 1.23095C11.1682 1.23095 11.0529 1.26928 10.9502 1.34595L6.0652 4.74995C5.97519 4.81395 5.90786 4.89062 5.8632 4.97995C5.81853 5.07062 5.7962 5.16762 5.7962 5.27095V7.13595C5.7962 7.27728 5.7482 7.39595 5.65219 7.49195C5.55619 7.58795 5.4372 7.63595 5.2952 7.63595C5.1532 7.63595 5.03453 7.58795 4.9392 7.49195C4.84386 7.39595 4.7962 7.27695 4.7962 7.13495V5.29495C4.7962 5.03762 4.8552 4.78995 4.9732 4.55195C5.0912 4.31328 5.25786 4.12162 5.4732 3.97695L10.3582 0.497951C10.5029 0.403285 10.6539 0.329951 10.8112 0.277951C10.9679 0.225951 11.1282 0.199951 11.2922 0.199951ZM10.2962 5.61495C10.4042 5.61495 10.4985 5.57495 10.5792 5.49495C10.6592 5.41362 10.6992 5.31895 10.6992 5.21095C10.6992 5.10295 10.6592 5.00895 10.5792 4.92895C10.4985 4.84762 10.4042 4.80695 10.2962 4.80695C10.1882 4.80695 10.0939 4.84762 10.0132 4.92895C9.9332 5.00962 9.8932 5.10362 9.8932 5.21095C9.8932 5.31828 9.9332 5.41262 10.0132 5.49395C10.0939 5.57462 10.1882 5.61495 10.2962 5.61495ZM12.2962 5.61495C12.4042 5.61495 12.4985 5.57495 12.5792 5.49495C12.6592 5.41362 12.6992 5.31895 12.6992 5.21095C12.6992 5.10295 12.6592 5.00895 12.5792 4.92895C12.4985 4.84762 12.4042 4.80695 12.2962 4.80695C12.1882 4.80695 12.0939 4.84762 12.0132 4.92895C11.9332 5.00962 11.8932 5.10362 11.8932 5.21095C11.8932 5.31828 11.9332 5.41262 12.0132 5.49395C12.0939 5.57462 12.1882 5.61495 12.2962 5.61495ZM10.2962 7.61495C10.4042 7.61495 10.4985 7.57495 10.5792 7.49495C10.6592 7.41362 10.6992 7.31895 10.6992 7.21095C10.6992 7.10295 10.6592 7.00895 10.5792 6.92895C10.4985 6.84762 10.4042 6.80695 10.2962 6.80695C10.1882 6.80695 10.0939 6.84762 10.0132 6.92895C9.9332 7.00962 9.8932 7.10362 9.8932 7.21095C9.8932 7.31828 9.9332 7.41262 10.0132 7.49395C10.0939 7.57462 10.1882 7.61495 10.2962 7.61495ZM12.2962 7.61495C12.4042 7.61495 12.4985 7.57495 12.5792 7.49495C12.6592 7.41362 12.6992 7.31895 12.6992 7.21095C12.6992 7.10295 12.6592 7.00895 12.5792 6.92895C12.4985 6.84762 12.4042 6.80695 12.2962 6.80695C12.1882 6.80695 12.0939 6.84762 12.0132 6.92895C11.9332 7.00962 11.8932 7.10362 11.8932 7.21095C11.8932 7.31828 11.9332 7.41262 12.0132 7.49395C12.0939 7.57462 12.1882 7.61495 12.2962 7.61495Z"/>
</mask>
<path d="M11.5922 17.977C11.6562 18.0023 11.7139 18.0149 11.7652 18.0149C11.8165 18.0149 11.8742 18.0023 11.9382 17.977L17.7542 16.1849C17.7342 15.8809 17.6435 15.662 17.4822 15.528C17.3195 15.394 17.1359 15.327 16.9312 15.327H12.1862C11.7635 15.327 11.3802 15.3103 11.0362 15.277C10.6922 15.2436 10.3405 15.1643 9.9812 15.0389L8.26719 14.4869C8.13053 14.4416 8.03219 14.3516 7.97219 14.217C7.91219 14.0823 7.90486 13.9489 7.9502 13.8169C7.99553 13.6849 8.08086 13.5883 8.20619 13.527C8.33153 13.4656 8.46419 13.458 8.60419 13.504L10.1542 14.065C10.4755 14.1743 10.8315 14.2443 11.2222 14.275C11.6122 14.3056 12.0952 14.323 12.6712 14.327H12.9312C12.9312 14.0149 12.8735 13.763 12.7582 13.571C12.6429 13.379 12.4785 13.245 12.2652 13.169L6.5112 11.057C6.4732 11.0443 6.43786 11.035 6.4052 11.029C6.37253 11.023 6.33753 11.0196 6.30019 11.019H4.2002V15.827L11.5922 17.977ZM11.3372 18.965L4.2002 16.877C4.10486 17.2716 3.9032 17.5863 3.5952 17.821C3.28719 18.0556 2.95053 18.173 2.5852 18.173H1.8152C1.3712 18.173 0.991195 18.0146 0.675195 17.698C0.358529 17.382 0.200195 17.002 0.200195 16.558V11.633C0.200195 11.189 0.358195 10.809 0.674195 10.493C0.990862 10.1763 1.3712 10.018 1.8152 10.018H6.2782C6.37153 10.018 6.4672 10.0286 6.5652 10.05C6.66386 10.0706 6.75553 10.0953 6.84019 10.124L12.6192 12.241C12.9772 12.377 13.2852 12.6213 13.5432 12.974C13.8019 13.3266 13.9312 13.7773 13.9312 14.326H16.9312C17.5332 14.326 17.9945 14.5143 18.3152 14.891C18.6359 15.2683 18.7962 15.7466 18.7962 16.326C18.7962 16.526 18.7422 16.6946 18.6342 16.832C18.5262 16.9693 18.3679 17.073 18.1592 17.143L12.2752 18.958C12.1299 18.9993 11.9765 19.0233 11.8152 19.03C11.6539 19.0366 11.4942 19.0146 11.3362 18.964M1.2002 16.557C1.2002 16.737 1.25786 16.8846 1.3732 17C1.48853 17.1153 1.63586 17.173 1.8152 17.173H2.5852C2.76453 17.173 2.91186 17.125 3.0272 17.029C3.14253 16.933 3.2002 16.7756 3.2002 16.557V11.019H1.8152C1.63586 11.019 1.48853 11.0766 1.3732 11.192C1.25786 11.3073 1.2002 11.455 1.2002 11.635V16.557ZM11.2922 0.199951C11.4562 0.199951 11.6182 0.225951 11.7782 0.277951C11.9382 0.329951 12.0902 0.403285 12.2342 0.497951L17.1192 3.97695C17.3345 4.12162 17.5012 4.31328 17.6192 4.55195C17.7372 4.78995 17.7962 5.03728 17.7962 5.29395V11.442C17.7962 11.584 17.7482 11.7026 17.6522 11.798C17.5562 11.8933 17.4372 11.9413 17.2952 11.942C17.1532 11.9426 17.0345 11.8946 16.9392 11.798C16.8439 11.7013 16.7962 11.583 16.7962 11.443V5.26895C16.7962 5.16628 16.7739 5.07028 16.7292 4.98095C16.6839 4.89095 16.6165 4.81395 16.5272 4.74995L11.6422 1.34595C11.5395 1.26928 11.4242 1.23095 11.2962 1.23095C11.1682 1.23095 11.0529 1.26928 10.9502 1.34595L6.0652 4.74995C5.97519 4.81395 5.90786 4.89062 5.8632 4.97995C5.81853 5.07062 5.7962 5.16762 5.7962 5.27095V7.13595C5.7962 7.27728 5.7482 7.39595 5.65219 7.49195C5.55619 7.58795 5.4372 7.63595 5.2952 7.63595C5.1532 7.63595 5.03453 7.58795 4.9392 7.49195C4.84386 7.39595 4.7962 7.27695 4.7962 7.13495V5.29495C4.7962 5.03762 4.8552 4.78995 4.9732 4.55195C5.0912 4.31328 5.25786 4.12162 5.4732 3.97695L10.3582 0.497951C10.5029 0.403285 10.6539 0.329951 10.8112 0.277951C10.9679 0.225951 11.1282 0.199951 11.2922 0.199951ZM10.2962 5.61495C10.4042 5.61495 10.4985 5.57495 10.5792 5.49495C10.6592 5.41362 10.6992 5.31895 10.6992 5.21095C10.6992 5.10295 10.6592 5.00895 10.5792 4.92895C10.4985 4.84762 10.4042 4.80695 10.2962 4.80695C10.1882 4.80695 10.0939 4.84762 10.0132 4.92895C9.9332 5.00962 9.8932 5.10362 9.8932 5.21095C9.8932 5.31828 9.9332 5.41262 10.0132 5.49395C10.0939 5.57462 10.1882 5.61495 10.2962 5.61495ZM12.2962 5.61495C12.4042 5.61495 12.4985 5.57495 12.5792 5.49495C12.6592 5.41362 12.6992 5.31895 12.6992 5.21095C12.6992 5.10295 12.6592 5.00895 12.5792 4.92895C12.4985 4.84762 12.4042 4.80695 12.2962 4.80695C12.1882 4.80695 12.0939 4.84762 12.0132 4.92895C11.9332 5.00962 11.8932 5.10362 11.8932 5.21095C11.8932 5.31828 11.9332 5.41262 12.0132 5.49395C12.0939 5.57462 12.1882 5.61495 12.2962 5.61495ZM10.2962 7.61495C10.4042 7.61495 10.4985 7.57495 10.5792 7.49495C10.6592 7.41362 10.6992 7.31895 10.6992 7.21095C10.6992 7.10295 10.6592 7.00895 10.5792 6.92895C10.4985 6.84762 10.4042 6.80695 10.2962 6.80695C10.1882 6.80695 10.0939 6.84762 10.0132 6.92895C9.9332 7.00962 9.8932 7.10362 9.8932 7.21095C9.8932 7.31828 9.9332 7.41262 10.0132 7.49395C10.0939 7.57462 10.1882 7.61495 10.2962 7.61495ZM12.2962 7.61495C12.4042 7.61495 12.4985 7.57495 12.5792 7.49495C12.6592 7.41362 12.6992 7.31895 12.6992 7.21095C12.6992 7.10295 12.6592 7.00895 12.5792 6.92895C12.4985 6.84762 12.4042 6.80695 12.2962 6.80695C12.1882 6.80695 12.0939 6.84762 12.0132 6.92895C11.9332 7.00962 11.8932 7.10362 11.8932 7.21095C11.8932 7.31828 11.9332 7.41262 12.0132 7.49395C12.0939 7.57462 12.1882 7.61495 12.2962 7.61495Z" fill="#CFCFCF"/>
<path d="M11.5922 17.977L11.6658 17.791L11.6571 17.7875L11.6481 17.7849L11.5922 17.977ZM11.9382 17.977L11.8793 17.7858L11.8718 17.7881L11.8646 17.791L11.9382 17.977ZM17.7542 16.1849L17.8131 16.3761L17.9641 16.3295L17.9538 16.1718L17.7542 16.1849ZM17.4822 15.528L17.61 15.3741L17.6094 15.3736L17.4822 15.528ZM9.9812 15.0389L10.0471 14.8501L10.0425 14.8486L9.9812 15.0389ZM8.26719 14.4869L8.20422 14.6768L8.20588 14.6773L8.26719 14.4869ZM8.60419 13.504L8.67229 13.3158L8.66663 13.3139L8.60419 13.504ZM10.1542 14.065L10.0861 14.253L10.0898 14.2543L10.1542 14.065ZM11.2222 14.275L11.2379 14.0756L11.2378 14.0756L11.2222 14.275ZM12.6712 14.327L12.6698 14.5269H12.6712V14.327ZM12.9312 14.327V14.5269H13.1312V14.327H12.9312ZM12.2652 13.169L12.1963 13.3567L12.1981 13.3574L12.2652 13.169ZM6.5112 11.057L6.58014 10.8691L6.57444 10.8672L6.5112 11.057ZM6.30019 11.019L6.30377 10.819H6.30019V11.019ZM4.2002 11.019V10.819H4.0002V11.019H4.2002ZM4.2002 15.827H4.0002V15.9771L4.14434 16.019L4.2002 15.827ZM4.2002 16.877L4.25635 16.685L4.05504 16.6261L4.00579 16.83L4.2002 16.877ZM2.5852 18.173V18.373V18.173ZM0.675195 17.698L0.816766 17.5567L0.816467 17.5564L0.675195 17.698ZM6.5652 10.05L6.52265 10.2454L6.52419 10.2457L6.5652 10.05ZM6.84019 10.124L6.90901 9.9361L6.90433 9.93451L6.84019 10.124ZM12.6192 12.241L12.6902 12.054L12.688 12.0532L12.6192 12.241ZM13.5432 12.974L13.3818 13.092L13.3819 13.0922L13.5432 12.974ZM13.9312 14.326H13.7312V14.526H13.9312V14.326ZM18.3152 14.891L18.4676 14.7614L18.4675 14.7613L18.3152 14.891ZM18.1592 17.143L18.2182 17.3341L18.2228 17.3326L18.1592 17.143ZM12.2752 18.958L12.3299 19.1504L12.3341 19.1491L12.2752 18.958ZM1.8152 17.173V16.9729V17.173ZM3.2002 11.019H3.4002V10.819H3.2002V11.019ZM12.2342 0.497951L12.3503 0.334929L12.3441 0.33083L12.2342 0.497951ZM17.1192 3.97695L17.0031 4.13992L17.0077 4.14296L17.1192 3.97695ZM17.6192 4.55195L17.4399 4.64059L17.44 4.64079L17.6192 4.55195ZM16.7292 4.98095L16.9081 4.89151L16.9078 4.89098L16.7292 4.98095ZM16.5272 4.74995L16.6437 4.58736L16.6415 4.58586L16.5272 4.74995ZM11.6422 1.34595L11.5225 1.50629L11.5279 1.51004L11.6422 1.34595ZM10.9502 1.34595L11.0646 1.51013L11.0699 1.5062L10.9502 1.34595ZM6.0652 4.74995L5.95085 4.58585L5.94929 4.58696L6.0652 4.74995ZM5.8632 4.97995L5.68431 4.89051L5.68379 4.89157L5.8632 4.97995ZM4.9732 4.55195L5.15238 4.64079L5.15248 4.64059L4.9732 4.55195ZM5.4732 3.97695L5.58477 4.14303L5.58922 4.13986L5.4732 3.97695ZM10.3582 0.497951L10.2486 0.330468L10.2422 0.335042L10.3582 0.497951ZM10.8112 0.277951L10.874 0.467848L10.8742 0.467769L10.8112 0.277951ZM10.5792 5.49495L10.72 5.63697L10.7218 5.6352L10.5792 5.49495ZM10.5792 4.92895L10.4372 5.06979L10.4378 5.07037L10.5792 4.92895ZM10.0132 4.92895L9.87119 4.78811L9.87119 4.78812L10.0132 4.92895ZM10.0132 5.49395L9.8706 5.6342L9.87177 5.63537L10.0132 5.49395ZM12.5792 5.49495L12.72 5.63697L12.7218 5.6352L12.5792 5.49495ZM12.5792 4.92895L12.4372 5.06979L12.4378 5.07037L12.5792 4.92895ZM12.0132 4.92895L11.8712 4.78811L11.8712 4.78812L12.0132 4.92895ZM12.0132 5.49395L11.8706 5.6342L11.8718 5.63537L12.0132 5.49395ZM10.5792 7.49495L10.72 7.63697L10.7218 7.6352L10.5792 7.49495ZM10.5792 6.92895L10.4372 7.06979L10.4378 7.07037L10.5792 6.92895ZM10.0132 6.92895L9.87119 6.78811L9.87119 6.78812L10.0132 6.92895ZM10.0132 7.49395L9.8706 7.6342L9.87177 7.63537L10.0132 7.49395ZM12.5792 7.49495L12.72 7.63697L12.7218 7.6352L12.5792 7.49495ZM12.5792 6.92895L12.4372 7.06979L12.4378 7.07037L12.5792 6.92895ZM12.0132 6.92895L11.8712 6.78811L11.8712 6.78812L12.0132 6.92895ZM12.0132 7.49395L11.8706 7.6342L11.8718 7.63537L12.0132 7.49395ZM11.5922 17.977L11.5186 18.1629C11.5985 18.1945 11.6817 18.215 11.7652 18.215V18.0149V17.8149C11.746 17.8149 11.7139 17.81 11.6658 17.791L11.5922 17.977ZM11.7652 18.0149V18.215C11.8487 18.215 11.9319 18.1945 12.0118 18.1629L11.9382 17.977L11.8646 17.791C11.8165 17.81 11.7843 17.8149 11.7652 17.8149V18.0149ZM11.9382 17.977L11.9971 18.1681L17.8131 16.3761L17.7542 16.1849L17.6953 15.9938L11.8793 17.7858L11.9382 17.977ZM17.7542 16.1849L17.9538 16.1718C17.9318 15.8381 17.8296 15.5565 17.61 15.3741L17.4822 15.528L17.3544 15.6818C17.4575 15.7674 17.5366 15.9238 17.5546 16.1981L17.7542 16.1849ZM17.4822 15.528L17.6094 15.3736C17.412 15.211 17.1837 15.127 16.9312 15.127V15.327V15.5269C17.088 15.5269 17.227 15.5769 17.355 15.6823L17.4822 15.528ZM16.9312 15.327V15.127H12.1862V15.327V15.5269H16.9312V15.327ZM12.1862 15.327V15.127C11.7686 15.127 11.3918 15.1105 11.0555 15.0779L11.0362 15.277L11.0169 15.476C11.3685 15.5101 11.7584 15.5269 12.1862 15.5269V15.327ZM11.0362 15.277L11.0555 15.0779C10.7289 15.0462 10.3928 14.9707 10.0471 14.8501L9.9812 15.0389L9.91533 15.2278C10.2882 15.3579 10.6555 15.441 11.0169 15.476L11.0362 15.277ZM9.9812 15.0389L10.0425 14.8486L8.3285 14.2966L8.26719 14.4869L8.20588 14.6773L9.91989 15.2293L9.9812 15.0389ZM8.26719 14.4869L8.33016 14.2971C8.2483 14.27 8.19262 14.2202 8.15488 14.1356L7.97219 14.217L7.78951 14.2983C7.87177 14.483 8.01275 14.6133 8.20423 14.6768L8.26719 14.4869ZM7.97219 14.217L8.15488 14.1356C8.1142 14.0442 8.11144 13.9632 8.13935 13.8819L7.9502 13.8169L7.76104 13.752C7.69828 13.9347 7.71019 14.1203 7.78951 14.2983L7.97219 14.217ZM7.9502 13.8169L8.13935 13.8819C8.16747 13.8 8.2164 13.7446 8.29411 13.7066L8.20619 13.527L8.11828 13.3473C7.94533 13.4319 7.82359 13.5699 7.76104 13.752L7.9502 13.8169ZM8.20619 13.527L8.29411 13.7066C8.36976 13.6696 8.44824 13.6632 8.54176 13.694L8.60419 13.504L8.66663 13.3139C8.48015 13.2527 8.29329 13.2617 8.11828 13.3473L8.20619 13.527ZM8.60419 13.504L8.53613 13.692L10.0861 14.253L10.1542 14.065L10.2223 13.8769L8.67226 13.3159L8.60419 13.504ZM10.1542 14.065L10.0898 14.2543C10.4291 14.3697 10.8018 14.4426 11.2065 14.4743L11.2222 14.275L11.2378 14.0756C10.8613 14.046 10.522 13.9788 10.2186 13.8756L10.1542 14.065ZM11.2222 14.275L11.2065 14.4743C11.6029 14.5055 12.091 14.5229 12.6698 14.5269L12.6712 14.327L12.6726 14.127C12.0994 14.123 11.6215 14.1057 11.2379 14.0756L11.2222 14.275ZM12.6712 14.327V14.5269H12.9312V14.327V14.127H12.6712V14.327ZM12.9312 14.327H13.1312C13.1312 13.9923 13.0696 13.701 12.9296 13.468L12.7582 13.571L12.5867 13.6739C12.6774 13.8249 12.7312 14.0376 12.7312 14.327H12.9312ZM12.7582 13.571L12.9296 13.468C12.7902 13.2358 12.5887 13.0719 12.3323 12.9805L12.2652 13.169L12.1981 13.3574C12.3683 13.418 12.4955 13.5221 12.5867 13.6739L12.7582 13.571ZM12.2652 13.169L12.3341 12.9812L6.58011 10.8692L6.5112 11.057L6.44228 11.2447L12.1963 13.3567L12.2652 13.169ZM6.5112 11.057L6.57444 10.8672C6.52932 10.8522 6.48482 10.8402 6.44133 10.8322L6.4052 11.029L6.36906 11.2257C6.3909 11.2297 6.41708 11.2364 6.44795 11.2467L6.5112 11.057ZM6.4052 11.029L6.44133 10.8322C6.39669 10.824 6.3507 10.8198 6.30377 10.819L6.30019 11.019L6.29662 11.2189C6.32435 11.2194 6.34837 11.2219 6.36906 11.2257L6.4052 11.029ZM6.30019 11.019V10.819H4.2002V11.019V11.219H6.30019V11.019ZM4.2002 11.019H4.0002V15.827H4.2002H4.4002V11.019H4.2002ZM4.2002 15.827L4.14434 16.019L11.5363 18.169L11.5922 17.977L11.6481 17.7849L4.25605 15.6349L4.2002 15.827ZM11.3372 18.965L11.3934 18.773L4.25635 16.685L4.2002 16.877L4.14404 17.0689L11.281 19.1569L11.3372 18.965ZM4.2002 16.877L4.00579 16.83C3.92068 17.1823 3.74355 17.4565 3.47399 17.6619L3.5952 17.821L3.7164 17.98C4.06284 17.7161 4.28904 17.3609 4.3946 16.9239L4.2002 16.877ZM3.5952 17.821L3.47399 17.6619C3.19859 17.8717 2.90401 17.9729 2.5852 17.9729V18.173V18.373C2.99704 18.373 3.3758 18.2395 3.7164 17.98L3.5952 17.821ZM2.5852 18.173V17.9729H1.8152V18.173V18.373H2.5852V18.173ZM1.8152 18.173V17.9729C1.42476 17.9729 1.09557 17.8361 0.816765 17.5567L0.675195 17.698L0.533625 17.8392C0.886824 18.1932 1.31763 18.373 1.8152 18.373V18.173ZM0.675195 17.698L0.816467 17.5564C0.537079 17.2776 0.400195 16.9484 0.400195 16.558H0.200195H0.00019531C0.00019531 17.0555 0.179978 17.4863 0.533923 17.8395L0.675195 17.698ZM0.200195 16.558H0.400195V11.633H0.200195H0.00019531V16.558H0.200195ZM0.200195 11.633H0.400195C0.400195 11.2424 0.536849 10.9131 0.815617 10.6344L0.674195 10.493L0.532774 10.3515C0.179541 10.7048 0.00019531 11.1355 0.00019531 11.633H0.200195ZM0.674195 10.493L0.815617 10.6344C1.09514 10.3548 1.42475 10.218 1.8152 10.218V10.018V9.81795C1.31764 9.81795 0.886584 9.99772 0.532774 10.3515L0.674195 10.493ZM1.8152 10.018V10.218H6.2782V10.018V9.81795H1.8152V10.018ZM6.2782 10.018V10.218C6.35621 10.218 6.4376 10.2269 6.52265 10.2454L6.5652 10.05L6.60774 9.85453C6.49679 9.83038 6.38685 9.81795 6.2782 9.81795V10.018ZM6.5652 10.05L6.52419 10.2457C6.616 10.2649 6.69985 10.2876 6.77605 10.3134L6.84019 10.124L6.90433 9.93451C6.8112 9.90298 6.71172 9.8763 6.6062 9.8542L6.5652 10.05ZM6.84019 10.124L6.7714 10.3117L12.5504 12.4287L12.6192 12.241L12.688 12.0532L6.90899 9.93616L6.84019 10.124ZM12.6192 12.241L12.5482 12.4279C12.8651 12.5483 13.1433 12.7661 13.3818 13.092L13.5432 12.974L13.7046 12.8559C13.4271 12.4765 13.0893 12.2056 12.6902 12.054L12.6192 12.241ZM13.5432 12.974L13.3819 13.0922C13.6096 13.4027 13.7312 13.8089 13.7312 14.326H13.9312H14.1312C14.1312 13.7457 13.9941 13.2505 13.7045 12.8557L13.5432 12.974ZM13.9312 14.326V14.526H16.9312V14.326V14.126H13.9312V14.326ZM16.9312 14.326V14.526C17.4885 14.526 17.8884 14.6982 18.1629 15.0206L18.3152 14.891L18.4675 14.7613C18.1006 14.3304 17.5779 14.126 16.9312 14.126V14.326ZM18.3152 14.891L18.1628 15.0205C18.4476 15.3557 18.5962 15.7856 18.5962 16.326H18.7962H18.9962C18.9962 15.7077 18.8241 15.1809 18.4676 14.7614L18.3152 14.891ZM18.7962 16.326H18.5962C18.5962 16.4879 18.5533 16.6112 18.477 16.7083L18.6342 16.832L18.7914 16.9556C18.9311 16.778 18.9962 16.564 18.9962 16.326H18.7962ZM18.6342 16.832L18.477 16.7083C18.3987 16.8079 18.2769 16.8925 18.0956 16.9533L18.1592 17.143L18.2228 17.3326C18.4589 17.2534 18.6537 17.1306 18.7914 16.9556L18.6342 16.832ZM18.1592 17.143L18.1002 16.9518L12.2162 18.7668L12.2752 18.958L12.3341 19.1491L18.2181 17.3341L18.1592 17.143ZM12.2752 18.958L12.2205 18.7656C12.0913 18.8023 11.9536 18.8241 11.8069 18.8301L11.8152 19.03L11.8235 19.2298C11.9994 19.2225 12.1684 19.1962 12.3299 19.1503L12.2752 18.958ZM11.8152 19.03L11.8069 18.8301C11.6697 18.8358 11.5335 18.8172 11.3973 18.7735L11.3362 18.964L11.2751 19.1544C11.4549 19.212 11.638 19.2374 11.8235 19.2298L11.8152 19.03ZM1.2002 16.557H1.0002C1.0002 16.784 1.07487 16.9845 1.23177 17.1414L1.3732 17L1.51462 16.8585C1.44085 16.7848 1.4002 16.6899 1.4002 16.557H1.2002ZM1.3732 17L1.23177 17.1414C1.38852 17.2981 1.58862 17.373 1.8152 17.373V17.173V16.9729C1.68311 16.9729 1.58853 16.9324 1.51462 16.8585L1.3732 17ZM1.8152 17.173V17.373H2.5852V17.173V16.9729H1.8152V17.173ZM2.5852 17.173V17.373C2.80176 17.373 2.99719 17.3141 3.15514 17.1827L3.0272 17.029L2.89925 16.8752C2.82653 16.9358 2.7273 16.9729 2.5852 16.9729V17.173ZM3.0272 17.029L3.15514 17.1827C3.33397 17.0338 3.4002 16.8071 3.4002 16.557H3.2002H3.0002C3.0002 16.7442 2.95109 16.8321 2.89925 16.8752L3.0272 17.029ZM3.2002 16.557H3.4002V11.019H3.2002H3.0002V16.557H3.2002ZM3.2002 11.019V10.819H1.8152V11.019V11.219H3.2002V11.019ZM1.8152 11.019V10.819C1.58862 10.819 1.38852 10.8938 1.23177 11.0505L1.3732 11.192L1.51462 11.3334C1.58853 11.2595 1.68311 11.219 1.8152 11.219V11.019ZM1.3732 11.192L1.23177 11.0505C1.07487 11.2074 1.0002 11.4079 1.0002 11.635H1.2002H1.4002C1.4002 11.502 1.44085 11.4071 1.51462 11.3334L1.3732 11.192ZM1.2002 11.635H1.0002V16.557H1.2002H1.4002V11.635H1.2002ZM11.2922 0.199951V0.399951C11.4347 0.399951 11.5758 0.422477 11.7164 0.468158L11.7782 0.277951L11.84 0.0877444C11.6606 0.0294258 11.4777 -4.88311e-05 11.2922 -4.88311e-05V0.199951ZM11.7782 0.277951L11.7164 0.468158C11.859 0.514508 11.9949 0.57997 12.1243 0.665072L12.2342 0.497951L12.3441 0.33083C12.1855 0.226599 12.0174 0.145395 11.84 0.0877444L11.7782 0.277951ZM12.2342 0.497951L12.1182 0.66086L17.0032 4.13986L17.1192 3.97695L17.2352 3.81404L12.3502 0.335042L12.2342 0.497951ZM17.1192 3.97695L17.0077 4.14296C17.1933 4.26766 17.3369 4.43232 17.4399 4.64059L17.6192 4.55195L17.7985 4.46331C17.6655 4.19425 17.4758 3.97558 17.2307 3.81094L17.1192 3.97695ZM17.6192 4.55195L17.44 4.64079C17.5448 4.85217 17.5962 5.0692 17.5962 5.29395H17.7962H17.9962C17.9962 5.00537 17.9296 4.72773 17.7984 4.46311L17.6192 4.55195ZM17.7962 5.29395H17.5962V11.442H17.7962H17.9962V5.29395H17.7962ZM17.7962 11.442H17.5962C17.5962 11.5336 17.5674 11.6003 17.5113 11.656L17.6522 11.798L17.7931 11.9399C17.929 11.805 17.9962 11.6343 17.9962 11.442H17.7962ZM17.6522 11.798L17.5113 11.656C17.4545 11.7124 17.3867 11.7415 17.2943 11.742L17.2952 11.942L17.2961 12.1419C17.4877 12.1411 17.6579 12.0742 17.7931 11.9399L17.6522 11.798ZM17.2952 11.942L17.2943 11.742C17.2033 11.7424 17.1372 11.7139 17.0816 11.6575L16.9392 11.798L16.7968 11.9384C16.9318 12.0753 17.1031 12.1429 17.2961 12.1419L17.2952 11.942ZM16.9392 11.798L17.0816 11.6575C17.0244 11.5996 16.9962 11.5322 16.9962 11.443H16.7962H16.5962C16.5962 11.6337 16.6633 11.803 16.7968 11.9384L16.9392 11.798ZM16.7962 11.443H16.9962V5.26895H16.7962H16.5962V11.443H16.7962ZM16.7962 5.26895H16.9962C16.9962 5.13613 16.967 5.0094 16.9081 4.89151L16.7292 4.98095L16.5503 5.07039C16.5807 5.13116 16.5962 5.19644 16.5962 5.26895H16.7962ZM16.7292 4.98095L16.9078 4.89098C16.8467 4.76955 16.7569 4.66845 16.6437 4.58737L16.5272 4.74995L16.4107 4.91253C16.4762 4.95945 16.5211 5.01235 16.5506 5.07092L16.7292 4.98095ZM16.5272 4.74995L16.6415 4.58586L11.7565 1.18186L11.6422 1.34595L11.5279 1.51004L16.4129 4.91404L16.5272 4.74995ZM11.6422 1.34595L11.7619 1.1857C11.6247 1.08326 11.4674 1.03095 11.2962 1.03095V1.23095V1.43095C11.381 1.43095 11.4544 1.45531 11.5225 1.5062L11.6422 1.34595ZM11.2962 1.23095V1.03095C11.125 1.03095 10.9677 1.08326 10.8305 1.1857L10.9502 1.34595L11.0699 1.5062C11.138 1.45531 11.2114 1.43095 11.2962 1.43095V1.23095ZM10.9502 1.34595L10.8359 1.18186L5.95085 4.58586L6.0652 4.74995L6.17954 4.91404L11.0645 1.51004L10.9502 1.34595ZM6.0652 4.74995L5.94929 4.58696C5.83546 4.6679 5.74513 4.76887 5.68431 4.89051L5.8632 4.97995L6.04208 5.06939C6.07059 5.01237 6.11493 4.96 6.1811 4.91294L6.0652 4.74995ZM5.8632 4.97995L5.68379 4.89157C5.62526 5.01036 5.5962 5.13768 5.5962 5.27095H5.7962H5.99619C5.99619 5.19756 6.01179 5.13088 6.04261 5.06834L5.8632 4.97995ZM5.7962 5.27095H5.5962V7.13595H5.7962H5.99619V5.27095H5.7962ZM5.7962 7.13595H5.5962C5.5962 7.22667 5.56758 7.29372 5.51077 7.35053L5.65219 7.49195L5.79362 7.63337C5.92881 7.49818 5.99619 7.3279 5.99619 7.13595H5.7962ZM5.65219 7.49195L5.51077 7.35053C5.45416 7.40715 5.38687 7.43595 5.2952 7.43595V7.63595V7.83595C5.48753 7.83595 5.65823 7.76876 5.79362 7.63337L5.65219 7.49195ZM5.2952 7.63595V7.43595C5.20354 7.43595 5.13687 7.40718 5.08111 7.35102L4.9392 7.49195L4.79728 7.63288C4.93219 7.76873 5.10285 7.83595 5.2952 7.83595V7.63595ZM4.9392 7.49195L5.08111 7.35102C5.02498 7.29451 4.99619 7.22706 4.99619 7.13495H4.7962H4.5962C4.5962 7.32684 4.66274 7.4974 4.79728 7.63288L4.9392 7.49195ZM4.7962 7.13495H4.99619V5.29495H4.7962H4.5962V7.13495H4.7962ZM4.7962 5.29495H4.99619C4.99619 5.06945 5.04762 4.8521 5.15238 4.64079L4.9732 4.55195L4.79401 4.46311C4.66278 4.7278 4.5962 5.00578 4.5962 5.29495H4.7962ZM4.9732 4.55195L5.15248 4.64059C5.25545 4.43232 5.39912 4.26766 5.58473 4.14296L5.4732 3.97695L5.36166 3.81094C5.1166 3.97558 4.92694 4.19425 4.79391 4.46331L4.9732 4.55195ZM5.4732 3.97695L5.58922 4.13986L10.4742 0.66086L10.3582 0.497951L10.2422 0.335042L5.35717 3.81404L5.4732 3.97695ZM10.3582 0.497951L10.4677 0.665304C10.5985 0.579738 10.7338 0.514164 10.874 0.467848L10.8112 0.277951L10.7484 0.0880543C10.5739 0.145738 10.4073 0.226831 10.2487 0.330598L10.3582 0.497951ZM10.8112 0.277951L10.8742 0.467769C11.0107 0.422468 11.1497 0.399951 11.2922 0.399951V0.199951V-4.88311e-05C11.1066 -4.88311e-05 10.925 0.0294341 10.7482 0.088134L10.8112 0.277951ZM10.2962 5.61495V5.81495C10.4599 5.81495 10.6041 5.75196 10.72 5.63696L10.5792 5.49495L10.4384 5.35294C10.393 5.39794 10.3485 5.41495 10.2962 5.41495V5.61495ZM10.5792 5.49495L10.7218 5.6352C10.8363 5.51879 10.8992 5.37461 10.8992 5.21095H10.6992H10.4992C10.4992 5.26329 10.4821 5.30844 10.4366 5.3547L10.5792 5.49495ZM10.6992 5.21095H10.8992C10.8992 5.04716 10.8361 4.90305 10.7206 4.78753L10.5792 4.92895L10.4378 5.07037C10.4823 5.11485 10.4992 5.15874 10.4992 5.21095H10.6992ZM10.5792 4.92895L10.7212 4.78811C10.6055 4.67147 10.461 4.60695 10.2962 4.60695V4.80695V5.00695C10.3474 5.00695 10.3915 5.02377 10.4372 5.06979L10.5792 4.92895ZM10.2962 4.80695V4.60695C10.1314 4.60695 9.98688 4.67147 9.87119 4.78811L10.0132 4.92895L10.1552 5.06979C10.2008 5.02377 10.245 5.00695 10.2962 5.00695V4.80695ZM10.0132 4.92895L9.87119 4.78812C9.75645 4.90381 9.6932 5.04754 9.6932 5.21095H9.8932H10.0932C10.0932 5.1597 10.1099 5.11542 10.1552 5.06978L10.0132 4.92895ZM9.8932 5.21095H9.6932C9.6932 5.3743 9.75638 5.51806 9.87061 5.6342L10.0132 5.49395L10.1558 5.3537C10.11 5.30718 10.0932 5.26227 10.0932 5.21095H9.8932ZM10.0132 5.49395L9.87177 5.63537C9.9876 5.7512 10.1319 5.81495 10.2962 5.81495V5.61495V5.41495C10.2445 5.41495 10.2001 5.39804 10.1546 5.35253L10.0132 5.49395ZM12.2962 5.61495V5.81495C12.4599 5.81495 12.6041 5.75196 12.72 5.63696L12.5792 5.49495L12.4384 5.35294C12.393 5.39794 12.3485 5.41495 12.2962 5.41495V5.61495ZM12.5792 5.49495L12.7218 5.6352C12.8363 5.51879 12.8992 5.37461 12.8992 5.21095H12.6992H12.4992C12.4992 5.26329 12.4821 5.30844 12.4366 5.3547L12.5792 5.49495ZM12.6992 5.21095H12.8992C12.8992 5.04716 12.8361 4.90305 12.7206 4.78753L12.5792 4.92895L12.4378 5.07037C12.4823 5.11485 12.4992 5.15874 12.4992 5.21095H12.6992ZM12.5792 4.92895L12.7212 4.78811C12.6055 4.67147 12.461 4.60695 12.2962 4.60695V4.80695V5.00695C12.3474 5.00695 12.3915 5.02377 12.4372 5.06979L12.5792 4.92895ZM12.2962 4.80695V4.60695C12.1314 4.60695 11.9869 4.67147 11.8712 4.78811L12.0132 4.92895L12.1552 5.06979C12.2008 5.02377 12.245 5.00695 12.2962 5.00695V4.80695ZM12.0132 4.92895L11.8712 4.78812C11.7564 4.90381 11.6932 5.04754 11.6932 5.21095H11.8932H12.0932C12.0932 5.1597 12.1099 5.11542 12.1552 5.06978L12.0132 4.92895ZM11.8932 5.21095H11.6932C11.6932 5.3743 11.7564 5.51806 11.8706 5.6342L12.0132 5.49395L12.1558 5.3537C12.11 5.30718 12.0932 5.26227 12.0932 5.21095H11.8932ZM12.0132 5.49395L11.8718 5.63537C11.9876 5.7512 12.1319 5.81495 12.2962 5.81495V5.61495V5.41495C12.2445 5.41495 12.2001 5.39804 12.1546 5.35253L12.0132 5.49395ZM10.2962 7.61495V7.81495C10.4599 7.81495 10.6041 7.75196 10.72 7.63696L10.5792 7.49495L10.4384 7.35294C10.393 7.39794 10.3485 7.41495 10.2962 7.41495V7.61495ZM10.5792 7.49495L10.7218 7.6352C10.8363 7.51879 10.8992 7.37461 10.8992 7.21095H10.6992H10.4992C10.4992 7.26329 10.4821 7.30844 10.4366 7.3547L10.5792 7.49495ZM10.6992 7.21095H10.8992C10.8992 7.04716 10.8361 6.90305 10.7206 6.78753L10.5792 6.92895L10.4378 7.07037C10.4823 7.11485 10.4992 7.15874 10.4992 7.21095H10.6992ZM10.5792 6.92895L10.7212 6.78811C10.6055 6.67147 10.461 6.60695 10.2962 6.60695V6.80695V7.00695C10.3474 7.00695 10.3915 7.02377 10.4372 7.06979L10.5792 6.92895ZM10.2962 6.80695V6.60695C10.1314 6.60695 9.98688 6.67147 9.87119 6.78811L10.0132 6.92895L10.1552 7.06979C10.2008 7.02377 10.245 7.00695 10.2962 7.00695V6.80695ZM10.0132 6.92895L9.87119 6.78812C9.75645 6.90381 9.6932 7.04754 9.6932 7.21095H9.8932H10.0932C10.0932 7.1597 10.1099 7.11542 10.1552 7.06978L10.0132 6.92895ZM9.8932 7.21095H9.6932C9.6932 7.3743 9.75638 7.51806 9.87061 7.6342L10.0132 7.49395L10.1558 7.3537C10.11 7.30718 10.0932 7.26227 10.0932 7.21095H9.8932ZM10.0132 7.49395L9.87177 7.63537C9.9876 7.7512 10.1319 7.81495 10.2962 7.81495V7.61495V7.41495C10.2445 7.41495 10.2001 7.39804 10.1546 7.35253L10.0132 7.49395ZM12.2962 7.61495V7.81495C12.4599 7.81495 12.6041 7.75196 12.72 7.63696L12.5792 7.49495L12.4384 7.35294C12.393 7.39794 12.3485 7.41495 12.2962 7.41495V7.61495ZM12.5792 7.49495L12.7218 7.6352C12.8363 7.51879 12.8992 7.37461 12.8992 7.21095H12.6992H12.4992C12.4992 7.26329 12.4821 7.30844 12.4366 7.3547L12.5792 7.49495ZM12.6992 7.21095H12.8992C12.8992 7.04716 12.8361 6.90305 12.7206 6.78753L12.5792 6.92895L12.4378 7.07037C12.4823 7.11485 12.4992 7.15874 12.4992 7.21095H12.6992ZM12.5792 6.92895L12.7212 6.78811C12.6055 6.67147 12.461 6.60695 12.2962 6.60695V6.80695V7.00695C12.3474 7.00695 12.3915 7.02377 12.4372 7.06979L12.5792 6.92895ZM12.2962 6.80695V6.60695C12.1314 6.60695 11.9869 6.67147 11.8712 6.78811L12.0132 6.92895L12.1552 7.06979C12.2008 7.02377 12.245 7.00695 12.2962 7.00695V6.80695ZM12.0132 6.92895L11.8712 6.78812C11.7564 6.90381 11.6932 7.04754 11.6932 7.21095H11.8932H12.0932C12.0932 7.1597 12.1099 7.11542 12.1552 7.06978L12.0132 6.92895ZM11.8932 7.21095H11.6932C11.6932 7.3743 11.7564 7.51806 11.8706 7.6342L12.0132 7.49395L12.1558 7.3537C12.11 7.30718 12.0932 7.26227 12.0932 7.21095H11.8932ZM12.0132 7.49395L11.8718 7.63537C11.9876 7.7512 12.1319 7.81495 12.2962 7.81495V7.61495V7.41495C12.2445 7.41495 12.2001 7.39804 12.1546 7.35253L12.0132 7.49395Z" fill="#CFCFCF" mask="url(#path-1-outside-1_1183_8371)"/>
</svg>
