<svg width="9" height="12" viewBox="0 0 9 12" fill="none" xmlns="http://www.w3.org/2000/svg">
<path d="M0 0.25H9M0 11.75H9M1.25 11.75V8.75L2.678 7.893C3.00492 7.69688 3.27547 7.41944 3.46332 7.0877C3.65116 6.75596 3.74989 6.38123 3.74989 6C3.74989 5.61877 3.65116 5.24404 3.46332 4.9123C3.27547 4.58056 3.00492 4.30312 2.678 4.107L1.25 3.25V0.25M7.75 0.25V3.25L6.322 4.107C5.9952 4.30321 5.72477 4.58068 5.53701 4.91241C5.34926 5.24414 5.25058 5.61882 5.25058 6C5.25058 6.38118 5.34926 6.75586 5.53701 7.08759C5.72477 7.41932 5.9952 7.69679 6.322 7.893L7.75 8.75V11.75" stroke="#8E8E8E"/>
</svg>
