<svg width="13" height="17" viewBox="0 0 13 17" fill="none" xmlns="http://www.w3.org/2000/svg">
<path d="M6.45866 8.125H0.625326M0.625326 8.125L3.12533 10.625M0.625326 8.125L3.12533 5.625M0.625326 3.125V2.29167C0.625326 1.84964 0.800921 1.42572 1.11348 1.11316C1.42604 0.800595 1.84996 0.625 2.29199 0.625H10.6253C11.0674 0.625 11.4913 0.800595 11.8038 1.11316C12.1164 1.42572 12.292 1.84964 12.292 2.29167V13.9583C12.292 14.4004 12.1164 14.8243 11.8038 15.1368C11.4913 15.4494 11.0674 15.625 10.6253 15.625H2.29199C1.84996 15.625 1.42604 15.4494 1.11348 15.1368C0.800921 14.8243 0.625326 14.4004 0.625326 13.9583V13.125" stroke="#FF5F57" stroke-width="1.25" stroke-linecap="round" stroke-linejoin="round"/>
</svg>
