<svg width="17" height="10" viewBox="0 0 17 10" fill="none" xmlns="http://www.w3.org/2000/svg">
<path d="M0.625244 5.625C3.62524 -1.04167 12.6252 -1.04167 15.6252 5.625" stroke="#CFCFCF" stroke-width="1.25" stroke-linecap="round" stroke-linejoin="round"/>
<path d="M8.12524 8.95834C7.79694 8.95834 7.47185 8.89368 7.16854 8.76804C6.86522 8.64241 6.58962 8.45826 6.35748 8.22611C6.12533 7.99396 5.94118 7.71837 5.81555 7.41505C5.68991 7.11174 5.62524 6.78665 5.62524 6.45834C5.62524 6.13004 5.68991 5.80495 5.81555 5.50163C5.94118 5.19832 6.12533 4.92272 6.35748 4.69058C6.58962 4.45843 6.86522 4.27428 7.16854 4.14864C7.47185 4.02301 7.79694 3.95834 8.12524 3.95834C8.78829 3.95834 9.42417 4.22174 9.89301 4.69058C10.3619 5.15942 10.6252 5.7953 10.6252 6.45834C10.6252 7.12138 10.3619 7.75727 9.89301 8.22611C9.42417 8.69495 8.78829 8.95834 8.12524 8.95834Z" stroke="#CFCFCF" stroke-width="1.25" stroke-linecap="round" stroke-linejoin="round"/>
</svg>
