<svg width="24" height="24" viewBox="0 0 24 24" fill="none" xmlns="http://www.w3.org/2000/svg">
<path d="M2 18.605C2 18.8039 2.07902 18.9947 2.21967 19.1353C2.36032 19.276 2.55109 19.355 2.75 19.355H7.85C8.01704 19.9779 8.38491 20.5282 8.89658 20.9208C9.40824 21.3133 10.0351 21.5261 10.68 21.5261C11.3249 21.5261 11.9518 21.3133 12.4634 20.9208C12.9751 20.5282 13.343 19.9779 13.51 19.355H21.25C21.4489 19.355 21.6397 19.276 21.7803 19.1353C21.921 18.9947 22 18.8039 22 18.605C22 18.4061 21.921 18.2153 21.7803 18.0747C21.6397 17.934 21.4489 17.855 21.25 17.855H13.51C13.343 17.2321 12.9751 16.6818 12.4634 16.2892C11.9518 15.8967 11.3249 15.684 10.68 15.684C10.0351 15.684 9.40824 15.8967 8.89658 16.2892C8.38491 16.6818 8.01704 17.2321 7.85 17.855H2.75C2.55109 17.855 2.36032 17.934 2.21967 18.0747C2.07902 18.2153 2 18.4061 2 18.605ZM2 5.39501C2 5.59392 2.07902 5.78468 2.21967 5.92534C2.36032 6.06599 2.55109 6.14501 2.75 6.14501H5.2C5.36704 6.76788 5.73491 7.31825 6.24658 7.71078C6.75824 8.1033 7.38511 8.31606 8.03 8.31606C8.67489 8.31606 9.30176 8.1033 9.81342 7.71078C10.3251 7.31825 10.693 6.76788 10.86 6.14501H21.25C21.3485 6.14501 21.446 6.12561 21.537 6.08792C21.628 6.05023 21.7107 5.99498 21.7803 5.92534C21.85 5.85569 21.9052 5.77301 21.9429 5.68202C21.9806 5.59103 22 5.4935 22 5.39501C22 5.29652 21.9806 5.19899 21.9429 5.10799C21.9052 5.017 21.85 4.93432 21.7803 4.86468C21.7107 4.79503 21.628 4.73979 21.537 4.7021C21.446 4.66441 21.3485 4.64501 21.25 4.64501H10.86C10.693 4.02213 10.3251 3.47176 9.81342 3.07924C9.30176 2.68671 8.67489 2.47395 8.03 2.47395C7.38511 2.47395 6.75824 2.68671 6.24658 3.07924C5.73491 3.47176 5.36704 4.02213 5.2 4.64501H2.75C2.65114 4.64366 2.55301 4.66214 2.4614 4.69936C2.3698 4.73657 2.28659 4.79177 2.21667 4.86168C2.14676 4.93159 2.09156 5.01481 2.05435 5.10641C2.01714 5.19801 1.99866 5.29614 2 5.39501ZM2 11.995C1.99866 12.0939 2.01714 12.192 2.05435 12.2836C2.09156 12.3752 2.14676 12.4584 2.21667 12.5283C2.28659 12.5982 2.3698 12.6534 2.4614 12.6907C2.55301 12.7279 2.65114 12.7464 2.75 12.745H14.45C14.617 13.3679 14.9849 13.9183 15.4966 14.3108C16.0082 14.7033 16.6351 14.9161 17.28 14.9161C17.9249 14.9161 18.5518 14.7033 19.0634 14.3108C19.5751 13.9183 19.943 13.3679 20.11 12.745H21.25C21.4489 12.745 21.6397 12.666 21.7803 12.5253C21.921 12.3847 22 12.1939 22 11.995C22 11.7961 21.921 11.6053 21.7803 11.4647C21.6397 11.324 21.4489 11.245 21.25 11.245H20.11C19.943 10.6221 19.5751 10.0718 19.0634 9.67924C18.5518 9.28671 17.9249 9.07395 17.28 9.07395C16.6351 9.07395 16.0082 9.28671 15.4966 9.67924C14.9849 10.0718 14.617 10.6221 14.45 11.245H2.75C2.55109 11.245 2.36032 11.324 2.21967 11.4647C2.07902 11.6053 2 11.7961 2 11.995Z" fill="white"/>
</svg>
