<svg width="16" height="16" viewBox="0 0 16 16" fill="none" xmlns="http://www.w3.org/2000/svg">
<path d="M3.33398 9.37267C3.33398 8.69934 3.33398 8.36334 3.48198 8.076C3.62932 7.78934 3.90332 7.59334 4.45065 7.20267L7.22598 5.22C7.59932 4.95334 7.78732 4.81934 8.00065 4.81934C8.21398 4.81934 8.40132 4.95267 8.77532 5.22L11.5507 7.202C12.098 7.59334 12.372 7.78867 12.5193 8.076C12.6667 8.36334 12.6673 8.69934 12.6673 9.372V12.6667C12.6673 13.2953 12.6673 13.6093 12.472 13.8047C12.2767 14 11.9627 14 11.334 14H4.66732C4.03865 14 3.72465 14 3.52932 13.8047C3.33398 13.6093 3.33398 13.2953 3.33398 12.6667V9.37267Z" fill="#888888" fill-opacity="0.25"/>
<path d="M2 8.25806C2 8.43539 2 8.52473 2.056 8.55206C2.112 8.57939 2.18267 8.52539 2.32267 8.41539L7.18133 4.63673C7.57467 4.33073 7.77133 4.17806 8 4.17806C8.22867 4.17806 8.42533 4.33139 8.81867 4.63673L13.6773 8.41539C13.8173 8.52473 13.888 8.57939 13.944 8.55206C14 8.52473 14 8.43539 14 8.25806V7.98539C14 7.66539 14 7.50539 13.932 7.36673C13.864 7.22806 13.738 7.12939 13.4853 6.93339L8.81867 3.30339C8.42533 2.99739 8.22867 2.84473 8 2.84473C7.77133 2.84473 7.57467 2.99806 7.18133 3.30339L2.51467 6.93339C2.262 7.12939 2.13533 7.22806 2.068 7.36673C2.00067 7.50539 2 7.66539 2 7.98539V8.25806ZM8.33333 10.0001H7.66667C7.31305 10.0001 6.97391 10.1405 6.72386 10.3906C6.47381 10.6406 6.33333 10.9798 6.33333 11.3334V13.9001C6.33333 13.9554 6.378 14.0001 6.43333 14.0001H9.56667C9.59319 14.0001 9.61862 13.9895 9.63738 13.9708C9.65613 13.952 9.66667 13.9266 9.66667 13.9001V11.3334C9.66667 10.9798 9.52619 10.6406 9.27614 10.3906C9.02609 10.1405 8.68696 10.0001 8.33333 10.0001Z" fill="#888888"/>
<path d="M11.666 3.33325H10.9993C10.8153 3.33325 10.666 3.48249 10.666 3.66659V5.66659C10.666 5.85068 10.8153 5.99992 10.9993 5.99992H11.666C11.8501 5.99992 11.9993 5.85068 11.9993 5.66659V3.66659C11.9993 3.48249 11.8501 3.33325 11.666 3.33325Z" fill="#888888"/>
</svg>
