<svg width="17" height="17" viewBox="0 0 17 17" fill="none" xmlns="http://www.w3.org/2000/svg">
<path fill-rule="evenodd" clip-rule="evenodd" d="M8.33332 0C12.9281 0 16.6667 3.73855 16.6667 8.33332C16.6667 12.9281 12.9281 16.6667 8.33332 16.6667C3.73855 16.6667 0 12.9281 0 8.33332C0 3.73855 3.73855 0 8.33332 0ZM8.33332 1.66668C4.64426 1.66668 1.66668 4.64426 1.66668 8.33332C1.66668 12.0224 4.64426 15 8.33332 15C12.0224 15 15 12.0224 15 8.33332C15 4.64426 12.0224 1.66668 8.33332 1.66668ZM8.36902 4.50969C8.99938 5.32934 9.21203 6.33766 9.01004 7.07379C8.98486 7.19493 9.87329 8.13953 11.6754 9.90758C12.2646 10.4968 12.2646 11.0861 11.6754 11.6754C11.1208 12.2299 10.5662 12.2625 10.0116 11.7732L7.08695 8.99688C6.35078 9.19887 5.3425 8.98621 4.52289 8.35586C3.92172 7.56543 3.71441 6.53223 3.88188 5.79176L5.16391 7.07379L6.44594 6.43277L7.08695 5.15074L5.80492 3.86867C6.54543 3.70121 7.57863 3.90852 8.36902 4.50969Z" fill="#885EFF"/>
</svg>
