<svg width="15" height="18" viewBox="0 0 15 18" fill="none" xmlns="http://www.w3.org/2000/svg">
<path d="M2.595 17.9464H11.4843C13.2171 17.9464 14.0793 17.0761 14.0793 15.3264V2.62821C14.0793 0.887143 13.2171 0 11.4843 0H2.595C0.870715 0 0 0.887143 0 2.62857V15.3264C0 17.0757 0.870715 17.9464 2.595 17.9464ZM2.66179 16.5989C1.79964 16.5989 1.3475 16.1382 1.3475 15.3014V2.65357C1.3475 1.825 1.79964 1.3475 2.67036 1.3475H11.4175C12.2879 1.3475 12.7318 1.81643 12.7318 2.65357V15.3014C12.7318 16.1382 12.2879 16.5989 11.4257 16.5989H2.66179ZM3.87571 4.84643H10.2204C10.5132 4.84643 10.7393 4.61214 10.7393 4.31929C10.7393 4.03464 10.5136 3.81714 10.2204 3.81714H3.87571C3.56571 3.81714 3.34821 4.03464 3.34821 4.31929C3.34821 4.61214 3.56607 4.84643 3.87571 4.84643ZM3.87571 7.76786H10.2204C10.5132 7.76786 10.7393 7.53357 10.7393 7.24036C10.7393 6.95607 10.5136 6.73821 10.2204 6.73821H3.87571C3.56571 6.73821 3.34821 6.95607 3.34821 7.24036C3.34821 7.53321 3.56607 7.76786 3.87571 7.76786ZM3.87571 10.6893H6.88071C7.17357 10.6893 7.39964 10.4632 7.39964 10.1786C7.39964 9.88571 7.17357 9.65964 6.88071 9.65964H3.87536C3.56536 9.65964 3.34786 9.88571 3.34786 10.1786C3.34786 10.4632 3.56571 10.6893 3.87536 10.6893" fill="#885EFF"/>
</svg>
