<svg width="16" height="16" viewBox="0 0 16 16" fill="none" xmlns="http://www.w3.org/2000/svg">
<path d="M1.33301 6.00001C1.33301 4.74268 1.33301 4.11468 1.72367 3.72401C2.11434 3.33334 2.74234 3.33334 3.99967 3.33334H11.9997C13.257 3.33334 13.885 3.33334 14.2757 3.72401C14.6663 4.11468 14.6663 4.74268 14.6663 6.00001C14.6663 6.31401 14.6663 6.47134 14.569 6.56934C14.471 6.66668 14.313 6.66668 13.9997 6.66668H1.99967C1.68567 6.66668 1.52834 6.66668 1.43034 6.56934C1.33301 6.47134 1.33301 6.31334 1.33301 6.00001ZM1.33301 12C1.33301 13.2573 1.33301 13.8853 1.72367 14.276C2.11434 14.6667 2.74234 14.6667 3.99967 14.6667H11.9997C13.257 14.6667 13.885 14.6667 14.2757 14.276C14.6663 13.8853 14.6663 13.2573 14.6663 12V8.66668C14.6663 8.35268 14.6663 8.19534 14.569 8.09734C14.471 8.00001 14.313 8.00001 13.9997 8.00001H1.99967C1.68567 8.00001 1.52834 8.00001 1.43034 8.09734C1.33301 8.19534 1.33301 8.35334 1.33301 8.66668V12Z" fill="#888888"/>
<path d="M4.66602 2V4M11.3327 2V4" stroke="#888888" stroke-width="1.33333" stroke-linecap="round"/>
</svg>
