<svg width="18" height="19" viewBox="0 0 18 19" fill="none" xmlns="http://www.w3.org/2000/svg">
<path d="M13.9583 8.95833V3.74917C13.9584 3.68339 13.9455 3.61824 13.9203 3.55747C13.8951 3.49669 13.8582 3.44148 13.8117 3.395L11.1883 0.771667C11.0947 0.677872 10.9676 0.625117 10.835 0.625H1.125C0.992392 0.625 0.865215 0.677678 0.771447 0.771447C0.677678 0.865215 0.625 0.992392 0.625 1.125V16.7917C0.625 16.9243 0.677678 17.0515 0.771447 17.1452C0.865215 17.239 0.992392 17.2917 1.125 17.2917H8.125M3.95833 7.29167H10.625M3.95833 3.95833H7.29167M3.95833 10.625H6.45833" stroke="#885EFF" stroke-width="1.25" stroke-linecap="round" stroke-linejoin="round"/>
<path d="M10.625 0.625V3.45833C10.625 3.59094 10.6777 3.71812 10.7714 3.81189C10.8652 3.90565 10.9924 3.95833 11.125 3.95833H13.9583M13.9517 11.5625L16.0817 12.1033C16.3033 12.16 16.4592 12.3617 16.4525 12.59C16.3092 17.3883 13.5417 18.125 13.5417 18.125C13.5417 18.125 10.7742 17.3883 10.6308 12.59C10.6286 12.4789 10.664 12.3703 10.7313 12.282C10.7987 12.1936 10.894 12.1306 11.0017 12.1033L13.1317 11.5625C13.4008 11.4942 13.6825 11.4942 13.9517 11.5625Z" stroke="#885EFF" stroke-width="1.25" stroke-linecap="round" stroke-linejoin="round"/>
</svg>
