<svg width="17" height="17" viewBox="0 0 17 17" fill="none" xmlns="http://www.w3.org/2000/svg">
<path d="M6.06917 7.41761C5.92824 7.55856 5.81647 7.7259 5.74025 7.91007C5.66404 8.09424 5.62488 8.29163 5.625 8.49094V10.6259H7.77333C8.17583 10.6259 8.5625 10.4659 8.8475 10.1809L15.1808 3.84428C15.3221 3.7034 15.4341 3.53604 15.5106 3.35178C15.587 3.16753 15.6264 2.97001 15.6264 2.77053C15.6264 2.57105 15.587 2.37352 15.5106 2.18927C15.4341 2.00502 15.3221 1.83766 15.1808 1.69678L14.555 1.07095C14.4141 0.929593 14.2467 0.817441 14.0624 0.740916C13.878 0.664391 13.6804 0.625 13.4808 0.625C13.2813 0.625 13.0836 0.664391 12.8993 0.740916C12.715 0.817441 12.5476 0.929593 12.4067 1.07095L6.06917 7.41761Z" stroke="#885EFF" stroke-width="1.25" stroke-linecap="round" stroke-linejoin="round"/>
<path d="M15.625 8.12595C15.625 11.6618 15.625 13.4293 14.5267 14.5276C13.4283 15.6259 11.66 15.6259 8.125 15.6259C4.59 15.6259 2.82167 15.6259 1.72333 14.5276C0.625 13.4293 0.625 11.6609 0.625 8.12595C0.625 4.59095 0.625 2.82261 1.72333 1.72428C2.82167 0.625946 4.59 0.625946 8.125 0.625946" stroke="#885EFF" stroke-width="1.25" stroke-linecap="round" stroke-linejoin="round"/>
</svg>
