<svg width="18" height="18" viewBox="0 0 18 18" fill="none" xmlns="http://www.w3.org/2000/svg">
<path d="M15.3229 9.19276L16.4529 10.199C16.6615 10.3731 16.801 10.6162 16.8459 10.8843C16.8909 11.1523 16.8383 11.4276 16.6979 11.6603L15.3354 13.9878C15.2297 14.1659 15.0787 14.313 14.8979 14.414C14.7149 14.5152 14.5095 14.569 14.3004 14.5703C14.1707 14.5711 14.0416 14.5517 13.9179 14.5128L12.4716 14.0353C12.2183 14.1978 11.955 14.3432 11.6816 14.4715L11.3779 15.9378C11.3217 16.2075 11.1715 16.4485 10.9541 16.6178C10.734 16.7901 10.4611 16.881 10.1816 16.8753H7.36037C7.08089 16.881 6.80799 16.7901 6.58787 16.6178C6.37097 16.4483 6.22125 16.2073 6.16537 15.9378L5.86037 14.4715C5.59062 14.3415 5.3289 14.1954 5.07662 14.034L3.62537 14.5128C3.50163 14.5517 3.37258 14.5711 3.24287 14.5703C3.0342 14.5688 2.82921 14.515 2.64662 14.414C2.46592 14.3133 2.315 14.1667 2.20912 13.989L0.797872 11.6603C0.651157 11.4255 0.595097 11.1453 0.6402 10.8721C0.685302 10.599 0.828471 10.3517 1.04287 10.1765L2.17162 8.75026V8.30776L1.04162 7.30151C0.83295 7.12738 0.693523 6.88429 0.648582 6.61624C0.603641 6.3482 0.656157 6.07293 0.796621 5.84026L2.20787 3.51276C2.31358 3.33459 2.46451 3.18754 2.64537 3.08651C2.82796 2.98547 3.03294 2.93176 3.24162 2.93026C3.37016 2.92215 3.49919 2.93396 3.62412 2.96526L5.04662 3.46526C5.30079 3.30276 5.56412 3.15734 5.83662 3.02901L6.14162 1.56276C6.1975 1.29322 6.34722 1.05225 6.56412 0.88276C6.78424 0.710442 7.05714 0.619476 7.33662 0.62526H10.1341C10.4136 0.619476 10.6865 0.710442 10.9066 0.88276C11.1254 1.05401 11.2754 1.29526 11.3291 1.56276L11.6341 3.02901C11.905 3.15818 12.1662 3.30401 12.4179 3.46651L13.8704 2.98901C14.0316 2.93657 14.2019 2.91816 14.3706 2.93494C14.5393 2.95172 14.7027 3.00333 14.8504 3.08651C15.0316 3.18901 15.1816 3.33651 15.2879 3.51151L16.6979 5.84026C16.8466 6.07304 16.9055 6.35196 16.8636 6.62499C16.8217 6.89801 16.682 7.14647 16.4704 7.32401L15.3229 8.30151V9.19276Z" stroke="#885EFF" stroke-width="1.25"/>
<path d="M11.875 8.75024C11.875 9.57905 11.5458 10.3739 10.9597 10.96C10.3737 11.546 9.5788 11.8752 8.75 11.8752C7.9212 11.8752 7.12634 11.546 6.54029 10.96C5.95424 10.3739 5.625 9.57905 5.625 8.75024C5.625 7.92144 5.95424 7.12659 6.54029 6.54054C7.12634 5.95448 7.9212 5.62524 8.75 5.62524C9.5788 5.62524 10.3737 5.95448 10.9597 6.54054C11.5458 7.12659 11.875 7.92144 11.875 8.75024Z" stroke="#885EFF" stroke-width="1.25"/>
</svg>
