<svg width="18" height="16" viewBox="0 0 18 16" fill="none" xmlns="http://www.w3.org/2000/svg">
<path d="M3.57917 9.61918L2.1025 8.14001L0.625 9.61918M13.9208 5.80334L15.3975 7.28334L16.875 5.80334" stroke="#885EFF" stroke-width="1.25" stroke-linecap="round" stroke-linejoin="round"/>
<path d="M15.3975 7.28334C15.3975 5.51667 14.6975 3.82417 13.4509 2.575C12.834 1.95689 12.1013 1.46649 11.2946 1.13189C10.488 0.79728 9.62331 0.625032 8.75004 0.625002C7.90177 0.624329 7.06136 0.787601 6.27504 1.10584C5.39725 1.45778 4.60463 1.9929 3.95007 2.67548C3.29551 3.35807 2.79407 4.17241 2.47921 5.06417M2.10254 8.13917C2.10382 9.68463 2.642 11.1816 3.62504 12.3742C4.60701 13.5653 5.97322 14.3771 7.48884 14.6702C9.00446 14.9632 10.5748 14.7192 11.93 13.98C13.2852 13.2393 14.3411 12.0511 14.9175 10.6183" stroke="#885EFF" stroke-width="1.25" stroke-linecap="round" stroke-linejoin="round"/>
<path d="M6.7334 9.34581C6.77677 9.84053 7.01212 10.2986 7.38904 10.6219C7.76597 10.9453 8.25451 11.1082 8.75007 11.0758C10.3767 11.0758 10.7667 10.14 10.7667 9.34581C10.7667 8.55165 10.0942 7.70998 8.75007 7.70998C7.4059 7.70998 6.7334 7.17831 6.7334 6.09498C6.75206 5.71958 6.88462 5.35878 7.11343 5.06059C7.34224 4.7624 7.65645 4.54099 8.01423 4.42581C8.25173 4.34915 8.50173 4.32165 8.75007 4.34498C9.24625 4.32342 9.73184 4.49281 10.1069 4.81832C10.4821 5.14383 10.7182 5.60071 10.7667 6.09498M8.75007 12.0841V11.2083M8.75007 3.33331V4.34165" stroke="#885EFF" stroke-width="1.25" stroke-linecap="round" stroke-linejoin="round"/>
</svg>
