<svg width="20" height="20" viewBox="0 0 20 20" fill="none" xmlns="http://www.w3.org/2000/svg">
<path d="M4.2853 10V6.24285C4.29645 5.50433 4.45323 4.77526 4.74664 4.09743C5.04004 3.41959 5.46432 2.80632 5.99515 2.29274C6.52598 1.77916 7.15294 1.37537 7.84009 1.10451C8.52724 0.83365 9.26109 0.701041 9.99958 0.714281C10.7381 0.701041 11.4719 0.83365 12.1591 1.10451C12.8462 1.37537 13.4732 1.77916 14.004 2.29274C14.5348 2.80632 14.9591 3.41959 15.2525 4.09743C15.5459 4.77526 15.7027 5.50433 15.7139 6.24285V10M12.8567 17.5C13.6145 17.5 14.3412 17.199 14.877 16.6632C15.4128 16.1273 15.7139 15.4006 15.7139 14.6429V11.4286M12.8567 17.5C12.8567 17.9736 12.6686 18.4278 12.3337 18.7627C11.9988 19.0976 11.5446 19.2857 11.071 19.2857H8.92815C8.45455 19.2857 8.00035 19.0976 7.66546 18.7627C7.33058 18.4278 7.14244 17.9736 7.14244 17.5C7.14244 17.0264 7.33058 16.5722 7.66546 16.2373C8.00035 15.9024 8.45455 15.7143 8.92815 15.7143H11.071C11.5446 15.7143 11.9988 15.9024 12.3337 16.2373C12.6686 16.5722 12.8567 17.0264 12.8567 17.5ZM2.14244 7.85714H3.57101C3.76045 7.85714 3.94213 7.93239 4.07609 8.06635C4.21004 8.2003 4.2853 8.38198 4.2853 8.57142V12.8571C4.2853 13.0466 4.21004 13.2283 4.07609 13.3622C3.94213 13.4962 3.76045 13.5714 3.57101 13.5714H2.14244C1.76356 13.5714 1.4002 13.4209 1.13229 13.153C0.864377 12.8851 0.713867 12.5217 0.713867 12.1429V9.28571C0.713867 8.90683 0.864377 8.54347 1.13229 8.27556C1.4002 8.00765 1.76356 7.85714 2.14244 7.85714ZM17.8567 13.5714H16.4282C16.2387 13.5714 16.057 13.4962 15.9231 13.3622C15.7891 13.2283 15.7139 13.0466 15.7139 12.8571V8.57142C15.7139 8.38198 15.7891 8.2003 15.9231 8.06635C16.057 7.93239 16.2387 7.85714 16.4282 7.85714H17.8567C18.2356 7.85714 18.599 8.00765 18.8669 8.27556C19.1348 8.54347 19.2853 8.90683 19.2853 9.28571V12.1429C19.2853 12.5217 19.1348 12.8851 18.8669 13.153C18.599 13.4209 18.2356 13.5714 17.8567 13.5714Z" stroke="#885EFF" stroke-width="1.42857" stroke-linecap="round" stroke-linejoin="round"/>
</svg>
