<svg width="19" height="17" viewBox="0 0 19 17" fill="none" xmlns="http://www.w3.org/2000/svg">
<path d="M10.525 0C15.1333 0 18.8667 3.75 18.8667 8.33333C18.8667 12.9167 15.1333 16.6667 10.525 16.6667C7.6 16.6667 5.04167 15.15 3.55 12.8583L4.86667 11.8167C6.04167 13.725 8.13333 15 10.5333 15C12.3014 15 13.9971 14.2976 15.2474 13.0474C16.4976 11.7971 17.2 10.1014 17.2 8.33333C17.2 6.56522 16.4976 4.86953 15.2474 3.61929C13.9971 2.36905 12.3014 1.66667 10.5333 1.66667C7.13333 1.66667 4.33333 4.21667 3.925 7.5H6.225L3.10833 10.6083L0 7.5H2.24167C2.65833 3.29167 6.20833 0 10.525 0ZM12.9917 6.86667C13.4083 6.875 13.75 7.20833 13.75 7.63333V11.475C13.75 11.8917 13.4083 12.2417 12.9833 12.2417H8.375C7.95 12.2417 7.60833 11.8917 7.60833 11.475V7.63333C7.60833 7.20833 7.95 6.875 8.36667 6.86667V6.025C8.36667 4.75 9.40833 3.71667 10.675 3.71667C11.95 3.71667 12.9917 4.75 12.9917 6.025V6.86667ZM10.675 4.88333C10.05 4.88333 9.53333 5.39167 9.53333 6.025V6.86667H11.825V6.025C11.825 5.39167 11.3083 4.88333 10.675 4.88333Z" fill="#885EFF"/>
</svg>
