<svg width="17" height="17" viewBox="0 0 17 17" fill="none" xmlns="http://www.w3.org/2000/svg">
<path d="M9.19047 0C10.128 0.0025 10.6038 0.0075 11.0146 0.0191667L11.1763 0.025C11.363 0.0316666 11.5471 0.04 11.7696 0.05C12.6563 0.0916666 13.2613 0.231667 13.7921 0.4375C14.3421 0.649167 14.8055 0.935833 15.2688 1.39833C15.6927 1.81478 16.0206 2.31873 16.2296 2.875C16.4355 3.40583 16.5755 4.01083 16.6171 4.89833C16.6271 5.12 16.6355 5.30417 16.6421 5.49167L16.6471 5.65333C16.6596 6.06333 16.6646 6.53917 16.6663 7.47667L16.6671 8.09833V9.19C16.6692 9.79784 16.6628 10.4057 16.648 11.0133L16.643 11.175C16.6363 11.3625 16.628 11.5467 16.618 11.7683C16.5763 12.6558 16.4346 13.26 16.2296 13.7917C16.0206 14.3479 15.6927 14.8519 15.2688 15.2683C14.8524 15.6922 14.3484 16.0202 13.7921 16.2292C13.2613 16.435 12.6563 16.575 11.7696 16.6167L11.1763 16.6417L11.0146 16.6467C10.6038 16.6583 10.128 16.6642 9.19047 16.6658L8.56881 16.6667H7.47797C6.86986 16.6688 6.26174 16.6624 5.65381 16.6475L5.49214 16.6425C5.29432 16.635 5.09653 16.6264 4.89881 16.6167C4.01214 16.575 3.40714 16.435 2.87547 16.2292C2.3195 16.02 1.81584 15.6921 1.39964 15.2683C0.975428 14.852 0.647231 14.348 0.437974 13.7917C0.232141 13.2608 0.0921406 12.6558 0.0504739 11.7683L0.025474 11.175L0.0213074 11.0133C0.00594578 10.4057 -0.000999412 9.79784 0.000473997 9.19V7.47667C-0.00183258 6.86883 0.00427918 6.261 0.0188074 5.65333L0.0246407 5.49167C0.0313074 5.30417 0.0396407 5.12 0.0496407 4.89833C0.0913073 4.01083 0.231307 3.40667 0.437141 2.875C0.646886 2.3185 0.97566 1.81453 1.40047 1.39833C1.81643 0.974624 2.3198 0.646728 2.87547 0.4375C3.40714 0.231667 4.01131 0.0916666 4.89881 0.05C5.12047 0.04 5.30547 0.0316666 5.49214 0.025L5.65381 0.0199999C6.26147 0.00519392 6.8693 -0.00119558 7.47714 0.000833273L9.19047 0ZM8.33381 4.16667C7.22874 4.16667 6.16893 4.60565 5.38753 5.38705C4.60613 6.16846 4.16714 7.22826 4.16714 8.33333C4.16714 9.4384 4.60613 10.4982 5.38753 11.2796C6.16893 12.061 7.22874 12.5 8.33381 12.5C9.43888 12.5 10.4987 12.061 11.2801 11.2796C12.0615 10.4982 12.5005 9.4384 12.5005 8.33333C12.5005 7.22826 12.0615 6.16846 11.2801 5.38705C10.4987 4.60565 9.43888 4.16667 8.33381 4.16667ZM8.33381 5.83333C8.66211 5.83328 8.98721 5.89789 9.29055 6.02348C9.59388 6.14906 9.86951 6.33316 10.1017 6.56527C10.3339 6.79738 10.5181 7.07295 10.6438 7.37624C10.7695 7.67953 10.8342 8.00461 10.8342 8.33292C10.8343 8.66122 10.7697 8.98632 10.6441 9.28966C10.5185 9.59299 10.3344 9.86862 10.1023 10.1008C9.87018 10.333 9.59461 10.5172 9.29132 10.6429C8.98802 10.7686 8.66294 10.8333 8.33464 10.8333C7.6716 10.8333 7.03571 10.5699 6.56687 10.1011C6.09803 9.63226 5.83464 8.99637 5.83464 8.33333C5.83464 7.67029 6.09803 7.03441 6.56687 6.56557C7.03571 6.09672 7.6716 5.83333 8.33464 5.83333M12.7096 2.91667C12.4334 2.91667 12.1684 3.02641 11.9731 3.22176C11.7777 3.41711 11.668 3.68207 11.668 3.95833C11.668 4.2346 11.7777 4.49955 11.9731 4.6949C12.1684 4.89025 12.4334 5 12.7096 5C12.9859 5 13.2509 4.89025 13.4462 4.6949C13.6416 4.49955 13.7513 4.2346 13.7513 3.95833C13.7513 3.68207 13.6416 3.41711 13.4462 3.22176C13.2509 3.02641 12.9859 2.91667 12.7096 2.91667Z" fill="#9290B9"/>
</svg>
