<svg width="8" height="10" viewBox="0 0 8 10" fill="none" xmlns="http://www.w3.org/2000/svg">
<path d="M4 0.400391C4.95478 0.400391 5.87077 0.778971 6.5459 1.4541C7.22103 2.12923 7.59961 3.04522 7.59961 4C7.59961 5.47007 6.68744 6.87476 5.70508 7.94922C5.22106 8.47861 4.7357 8.9109 4.37109 9.21094C4.2257 9.33059 4.09815 9.42645 4 9.50098C3.90185 9.42645 3.7743 9.33059 3.62891 9.21094C3.2643 8.9109 2.77894 8.47861 2.29492 7.94922C1.31256 6.87476 0.400391 5.47007 0.400391 4C0.400391 3.04522 0.778971 2.12923 1.4541 1.4541C2.12923 0.778971 3.04522 0.400391 4 0.400391ZM4 2.09961C3.49609 2.09961 3.01257 2.29993 2.65625 2.65625C2.29993 3.01257 2.09961 3.49609 2.09961 4C2.09961 4.50391 2.29993 4.98743 2.65625 5.34375C3.01257 5.70007 3.49609 5.90039 4 5.90039C4.50391 5.90039 4.98743 5.70007 5.34375 5.34375C5.70007 4.98743 5.90039 4.50391 5.90039 4C5.90039 3.49609 5.70007 3.01257 5.34375 2.65625C4.98743 2.29993 4.50391 2.09961 4 2.09961Z" stroke="#885EFF" stroke-width="0.8"/>
</svg>
