<svg width="14" height="14" viewBox="0 0 14 14" fill="none" xmlns="http://www.w3.org/2000/svg">
<path fill-rule="evenodd" clip-rule="evenodd" d="M6.66666 0C10.3425 0 13.3333 2.99084 13.3333 6.66666C13.3333 10.3425 10.3425 13.3333 6.66666 13.3333C2.99084 13.3333 0 10.3425 0 6.66666C0 2.99084 2.99084 0 6.66666 0ZM6.66666 1.33334C3.71541 1.33334 1.33334 3.71541 1.33334 6.66666C1.33334 9.61791 3.71541 12 6.66666 12C9.61791 12 12 9.61794 12 6.66666C12 3.71541 9.61794 1.33334 6.66666 1.33334ZM6.69522 3.60775C7.1995 4.26347 7.36963 5.07012 7.20803 5.65903C7.18789 5.75595 7.89864 6.51163 9.34028 7.92606C9.81168 8.39746 9.81168 8.86887 9.34028 9.34028C8.89662 9.78393 8.45294 9.81002 8.00925 9.41856L5.66956 7.1975C5.08062 7.35909 4.274 7.18897 3.61831 6.68469C3.13738 6.05234 2.97153 5.22578 3.1055 4.63341L4.13113 5.65903L5.15675 5.14622L5.66956 4.12059L4.64394 3.09494C5.23634 2.96097 6.06291 3.12681 6.69522 3.60775Z" fill="#888888"/>
</svg>
