<svg width="19" height="20" viewBox="0 0 19 20" fill="none" xmlns="http://www.w3.org/2000/svg">
<path d="M10 1.83337C10 0.728804 9.09583 -0.18674 8.01328 0.0327121C6.88428 0.261581 5.7983 0.684827 4.80539 1.28843C3.23984 2.24015 1.96584 3.60368 1.12247 5.23017C0.279104 6.85665 -0.101221 8.68357 0.0230183 10.5115C0.147258 12.3394 0.771286 14.0981 1.82698 15.5955C2.88267 17.0929 4.32945 18.2715 6.00938 19.0026C7.68931 19.7337 9.53782 19.9893 11.3531 19.7414C13.1684 19.4935 14.8807 18.7517 16.3031 17.5968C17.2052 16.8644 17.9687 15.9838 18.5635 14.9973C19.1339 14.0514 18.5754 12.8922 17.535 12.5211L11.3281 10.3071C10.5317 10.023 10 9.26886 10 8.42335V1.83337Z" fill="#885EFF"/>
</svg>
