<svg width="18" height="18" viewBox="0 0 18 18" fill="none" xmlns="http://www.w3.org/2000/svg">
<path d="M17.2917 16.4583H0.625M0.625 7.29166L7.39667 1.875C7.83994 1.52041 8.39069 1.32722 8.95833 1.32722C9.52598 1.32722 10.0767 1.52041 10.52 1.875L17.2917 7.29166" stroke="#885EFF" stroke-width="1.25" stroke-linecap="round"/>
<path opacity="0.5" d="M11.875 2.70833V1.04167C11.875 0.93116 11.9189 0.825179 11.997 0.747039C12.0752 0.668899 12.1812 0.625 12.2917 0.625H14.375C14.4855 0.625 14.5915 0.668899 14.6696 0.747039C14.7478 0.825179 14.7917 0.93116 14.7917 1.04167V5.20833" stroke="#885EFF" stroke-width="1.25" stroke-linecap="round"/>
<path d="M2.29199 16.4583V6.04167M15.6253 16.4583V6.04167" stroke="#885EFF" stroke-width="1.25" stroke-linecap="round"/>
<path opacity="0.5" d="M11.458 16.4583V12.2917C11.458 11.1133 11.458 10.5242 11.0913 10.1583C10.7263 9.79167 10.1372 9.79167 8.95801 9.79167C7.77884 9.79167 7.19051 9.79167 6.82467 10.1583C6.45801 10.5233 6.45801 11.1125 6.45801 12.2917V16.4583M10.6247 6.04167C10.6247 6.48369 10.4491 6.90762 10.1365 7.22018C9.82396 7.53274 9.40004 7.70833 8.95801 7.70833C8.51598 7.70833 8.09206 7.53274 7.7795 7.22018C7.46694 6.90762 7.29134 6.48369 7.29134 6.04167C7.29134 5.59964 7.46694 5.17572 7.7795 4.86316C8.09206 4.5506 8.51598 4.375 8.95801 4.375C9.40004 4.375 9.82396 4.5506 10.1365 4.86316C10.4491 5.17572 10.6247 5.59964 10.6247 6.04167Z" stroke="#885EFF" stroke-width="1.25"/>
</svg>
