<svg width="16" height="16" viewBox="0 0 16 16" fill="none" xmlns="http://www.w3.org/2000/svg">
<path d="M12.3228 11.178C11.4116 11.3968 10.4603 11.3862 9.5542 11.1472C8.64809 10.9081 7.8154 10.4481 7.1307 9.80825C6.44601 9.16841 5.93069 8.36875 5.63088 7.48088C5.33108 6.593 5.25615 5.64464 5.41281 4.7207C5.38934 4.7441 5.36416 4.76572 5.33747 4.78537C5.15081 4.92737 4.91747 4.98004 4.45081 5.08537L4.02747 5.18137C2.38747 5.5527 1.56747 5.73804 1.37214 6.36537C1.17747 6.99204 1.73614 7.64604 2.85414 8.95337L3.14347 9.29137C3.46081 9.6627 3.62014 9.8487 3.69147 10.078C3.76281 10.308 3.73881 10.556 3.69081 11.0514L3.64681 11.5027C3.47814 13.2474 3.39347 14.1194 3.90414 14.5067C4.41481 14.894 5.18281 14.5414 6.71747 13.834L7.11547 13.6514C7.55147 13.45 7.76947 13.35 8.00081 13.35C8.23214 13.35 8.45014 13.45 8.88681 13.6514L9.28347 13.834C10.8188 14.5407 11.5868 14.894 12.0968 14.5074C12.6081 14.1194 12.5235 13.2474 12.3548 11.5027L12.3228 11.178Z" fill="#FFEB13"/>
<path opacity="0.5" d="M6.1018 3.60525L5.88313 3.99725C5.64313 4.42792 5.52313 4.64325 5.33647 4.78525C5.36313 4.76525 5.38824 4.7437 5.4118 4.72058C5.2551 5.64459 5.33003 6.59303 5.62986 7.48097C5.9297 8.36891 6.44509 9.16862 7.12987 9.80848C7.81465 10.4483 8.64743 10.9084 9.55365 11.1474C10.4599 11.3864 11.4112 11.3969 12.3225 11.1779L12.3091 11.0513C12.2618 10.5559 12.2378 10.3079 12.3091 10.0779C12.3805 9.84858 12.5391 9.66259 12.8571 9.29125L13.1465 8.95325C14.2645 7.64658 14.8231 6.99259 14.6278 6.36525C14.4331 5.73792 13.6131 5.55192 11.9731 5.18125L11.5491 5.08525C11.0831 4.97992 10.8498 4.92725 10.6625 4.78525C10.4758 4.64325 10.3558 4.42792 10.1158 3.99725L9.8978 3.60525C9.05313 2.09059 8.63113 1.33325 7.9998 1.33325C7.36847 1.33325 6.94647 2.09059 6.1018 3.60525Z" fill="#FFEB13"/>
</svg>
