<svg width="12" height="14" viewBox="0 0 12 14" fill="none" xmlns="http://www.w3.org/2000/svg">
<path d="M1.33333 13.3333C0.966667 13.3333 0.652889 13.2029 0.392 12.942C0.131111 12.6811 0.000444444 12.3671 0 12V2.66667C0 2.3 0.130667 1.98622 0.392 1.72533C0.653333 1.46444 0.967111 1.33378 1.33333 1.33333H4.13333C4.28889 0.933333 4.53333 0.611111 4.86667 0.366667C5.2 0.122222 5.57778 0 6 0C6.42222 0 6.8 0.122222 7.13333 0.366667C7.46667 0.611111 7.71111 0.933333 7.86667 1.33333H10.6667C11.0333 1.33333 11.3473 1.464 11.6087 1.72533C11.87 1.98667 12.0004 2.30044 12 2.66667V12C12 12.3667 11.8696 12.6807 11.6087 12.942C11.3478 13.2033 11.0338 13.3338 10.6667 13.3333H1.33333ZM6 2.16667C6.14444 2.16667 6.264 2.11933 6.35867 2.02467C6.45333 1.93 6.50044 1.81067 6.5 1.66667C6.49956 1.52267 6.45222 1.40333 6.358 1.30867C6.26378 1.214 6.14444 1.16667 6 1.16667C5.85556 1.16667 5.73622 1.214 5.642 1.30867C5.54778 1.40333 5.50044 1.52267 5.5 1.66667C5.49956 1.81067 5.54689 1.93022 5.642 2.02533C5.73711 2.12044 5.85644 2.16756 6 2.16667ZM1.33333 11.2333C1.93333 10.6444 2.63067 10.1807 3.42533 9.842C4.22 9.50333 5.07822 9.33378 6 9.33333C6.92178 9.33289 7.78022 9.50244 8.57533 9.842C9.37044 10.1816 10.0676 10.6453 10.6667 11.2333V2.66667H1.33333V11.2333ZM6 8C6.64444 8 7.19445 7.77222 7.65 7.31667C8.10556 6.86111 8.33333 6.31111 8.33333 5.66667C8.33333 5.02222 8.10556 4.47222 7.65 4.01667C7.19445 3.56111 6.64444 3.33333 6 3.33333C5.35556 3.33333 4.80556 3.56111 4.35 4.01667C3.89444 4.47222 3.66667 5.02222 3.66667 5.66667C3.66667 6.31111 3.89444 6.86111 4.35 7.31667C4.80556 7.77222 5.35556 8 6 8ZM2.66667 12H9.33333V11.8333C8.86667 11.4444 8.35 11.1529 7.78333 10.9587C7.21667 10.7644 6.62222 10.6671 6 10.6667C5.37778 10.6662 4.78333 10.7636 4.21667 10.9587C3.65 11.1538 3.13333 11.4453 2.66667 11.8333V12ZM6 6.66667C5.72222 6.66667 5.48622 6.56956 5.292 6.37533C5.09778 6.18111 5.00044 5.94489 5 5.66667C4.99956 5.38844 5.09689 5.15244 5.292 4.95867C5.48711 4.76489 5.72311 4.66756 6 4.66667C6.27689 4.66578 6.51311 4.76311 6.70867 4.95867C6.90422 5.15422 7.00133 5.39022 7 5.66667C6.99867 5.94311 6.90156 6.17933 6.70867 6.37533C6.51578 6.57133 6.27956 6.66844 6 6.66667Z" fill="#888888"/>
</svg>
