<svg width="17" height="15" viewBox="0 0 17 15" fill="none" xmlns="http://www.w3.org/2000/svg">
<path fill-rule="evenodd" clip-rule="evenodd" d="M14.0215 13.5751V13.5735L14.0365 13.5377L16.5356 0.93765V0.89765C16.5356 0.583483 16.419 0.309316 16.1673 0.14515C15.9465 0.000983042 15.6923 -0.00901689 15.514 0.00431645C15.348 0.0194603 15.1842 0.0529993 15.0256 0.104316C14.9579 0.125908 14.8912 0.150375 14.8256 0.17765L14.8148 0.181816L0.881454 5.64765L0.877287 5.64932C0.834599 5.6629 0.793076 5.6799 0.75312 5.70015C0.654082 5.74478 0.559018 5.79775 0.468954 5.85848C0.289787 5.98182 -0.0510464 6.27182 0.00645358 6.73182C0.0539536 7.11348 0.316454 7.35515 0.493954 7.48098C0.598489 7.55478 0.711176 7.6163 0.829787 7.66432L0.856454 7.67598L0.864787 7.67848L0.87062 7.68098L3.30895 8.50182C3.30006 8.65515 3.3159 8.80932 3.35645 8.96432L4.57729 13.5968C4.64398 13.8493 4.78809 14.0746 4.98939 14.241C5.19068 14.4074 5.43905 14.5066 5.6996 14.5246C5.96015 14.5427 6.21981 14.4786 6.44209 14.3415C6.66438 14.2044 6.83813 14.0011 6.93895 13.7601L8.84562 11.7218L12.1198 14.2318L12.1665 14.2518C12.464 14.3818 12.7415 14.4226 12.9956 14.3885C13.2498 14.3535 13.4515 14.2468 13.6031 14.126C13.7786 13.9838 13.9184 13.8026 14.0115 13.5968L14.0181 13.5826L14.0206 13.5776L14.0215 13.5751ZM4.56479 8.64598C4.55127 8.59458 4.55448 8.54021 4.57396 8.49076C4.59344 8.44131 4.62818 8.39935 4.67312 8.37098L12.9406 3.12098C12.9406 3.12098 13.4273 2.82515 13.4098 3.12098C13.4098 3.12098 13.4965 3.17265 13.2356 3.41515C12.989 3.64598 7.34312 9.09682 6.77145 9.64848C6.74043 9.67993 6.71829 9.71903 6.70729 9.76182L5.78562 13.2785L4.56479 8.64598Z" fill="#9290B9"/>
</svg>
