<svg width="20" height="20" viewBox="0 0 20 20" fill="none" xmlns="http://www.w3.org/2000/svg">
<path d="M16.2493 3.33329H13.7493V2.08329C13.7493 1.97279 13.7055 1.86681 13.6273 1.78866C13.5492 1.71052 13.4432 1.66663 13.3327 1.66663C13.2222 1.66663 13.1162 1.71052 13.0381 1.78866C12.9599 1.86681 12.916 1.97279 12.916 2.08329V3.33329H7.08268V2.08329C7.08268 1.97279 7.03878 1.86681 6.96064 1.78866C6.8825 1.71052 6.77652 1.66663 6.66602 1.66663C6.55551 1.66663 6.44953 1.71052 6.37139 1.78866C6.29325 1.86681 6.24935 1.97279 6.24935 2.08329V3.33329H3.74935C3.19702 3.33395 2.6675 3.55366 2.27694 3.94422C1.88638 4.33478 1.66668 4.86429 1.66602 5.41663V16.25C1.66668 16.8023 1.88638 17.3318 2.27694 17.7224C2.6675 18.1129 3.19702 18.3326 3.74935 18.3333H16.2493C16.8019 18.3333 17.3318 18.1138 17.7225 17.7231C18.1132 17.3324 18.3327 16.8025 18.3327 16.25V5.41663C18.3327 4.86409 18.1132 4.33419 17.7225 3.94349C17.3318 3.55279 16.8019 3.33329 16.2493 3.33329ZM17.4993 16.25C17.4993 16.5815 17.3677 16.8994 17.1332 17.1338C16.8988 17.3683 16.5809 17.5 16.2493 17.5H3.74935C3.41783 17.5 3.09989 17.3683 2.86547 17.1338C2.63105 16.8994 2.49935 16.5815 2.49935 16.25V9.16663H17.4993V16.25ZM17.4993 8.33329H2.49935V5.41663C2.49935 4.72663 3.05768 4.16663 3.74935 4.16663H6.24935V5.41663C6.24935 5.52713 6.29325 5.63311 6.37139 5.71125C6.44953 5.78939 6.55551 5.83329 6.66602 5.83329C6.77652 5.83329 6.8825 5.78939 6.96064 5.71125C7.03878 5.63311 7.08268 5.52713 7.08268 5.41663V4.16663H12.916V5.41663C12.916 5.52713 12.9599 5.63311 13.0381 5.71125C13.1162 5.78939 13.2222 5.83329 13.3327 5.83329C13.4432 5.83329 13.5492 5.78939 13.6273 5.71125C13.7055 5.63311 13.7493 5.52713 13.7493 5.41663V4.16663H16.2493C16.5809 4.16663 16.8988 4.29832 17.1332 4.53274C17.3677 4.76716 17.4993 5.08511 17.4993 5.41663V8.33329Z" fill="#666666"/>
</svg>
