<svg width="17" height="17" viewBox="0 0 17 17" fill="none" xmlns="http://www.w3.org/2000/svg">
<path d="M6.3525 0.00771511C6.43361 0.0205937 6.51138 0.0493304 6.58138 0.0922828C6.65137 0.135235 6.71222 0.191561 6.76043 0.258041C6.80865 0.32452 6.84329 0.39985 6.86237 0.479725C6.88146 0.5596 6.88462 0.642453 6.87167 0.723548L6.22083 4.79105H11.6208L12.3042 0.526048C12.3359 0.367665 12.4278 0.227726 12.5604 0.135575C12.6931 0.0434236 12.8563 0.00621826 13.0158 0.0317602C13.1753 0.0573022 13.3187 0.143607 13.416 0.272579C13.5132 0.40155 13.5568 0.56317 13.5375 0.723548L12.8875 4.79105H16.0458C16.2116 4.79105 16.3706 4.8569 16.4878 4.97411C16.605 5.09132 16.6708 5.25029 16.6708 5.41605C16.6708 5.58181 16.605 5.74078 16.4878 5.85799C16.3706 5.9752 16.2116 6.04105 16.0458 6.04105H12.6875L11.8875 11.041H15.2125C15.3783 11.041 15.5372 11.1069 15.6544 11.2241C15.7717 11.3413 15.8375 11.5003 15.8375 11.666C15.8375 11.8318 15.7717 11.9908 15.6544 12.108C15.5372 12.2252 15.3783 12.291 15.2125 12.291H11.6875L11.0375 16.3485C11.0057 16.5069 10.9139 16.6469 10.7812 16.739C10.6486 16.8312 10.4854 16.8684 10.3259 16.8428C10.1664 16.8173 10.0229 16.731 9.92568 16.602C9.82842 16.473 9.78487 16.3114 9.80417 16.151L10.4208 12.291H5.02083L4.37083 16.3485C4.33908 16.5069 4.24724 16.6469 4.11457 16.739C3.9819 16.8312 3.8187 16.8684 3.6592 16.8428C3.4997 16.8173 3.35628 16.731 3.25902 16.602C3.16176 16.473 3.11821 16.3114 3.1375 16.151L3.75417 12.291H0.625C0.45924 12.291 0.300269 12.2252 0.183058 12.108C0.065848 11.9908 0 11.8318 0 11.666C0 11.5003 0.065848 11.3413 0.183058 11.2241C0.300269 11.1069 0.45924 11.041 0.625 11.041H3.95417L4.75417 6.04105H1.4625C1.29674 6.04105 1.13777 5.9752 1.02056 5.85799C0.903348 5.74078 0.8375 5.58181 0.8375 5.41605C0.8375 5.25029 0.903348 5.09132 1.02056 4.97411C1.13777 4.8569 1.29674 4.79105 1.4625 4.79105H4.95417L5.6375 0.526048C5.66371 0.362564 5.75373 0.216163 5.88778 0.118982C6.02183 0.0218016 6.18897 -0.0182157 6.3525 0.00771511ZM10.6217 11.041L11.4217 6.04105H6.02083L5.22083 11.041H10.6217Z" fill="#666666"/>
</svg>
