<svg width="39" height="29" viewBox="0 0 39 29" fill="none" xmlns="http://www.w3.org/2000/svg">
<path d="M20.625 28.875V20.625H26.125L19.25 12.375L12.375 20.625H17.875V28.875H11V28.8063C10.769 28.82 10.549 28.875 10.3125 28.875C7.57746 28.875 4.95443 27.7885 3.02046 25.8545C1.08649 23.9206 0 21.2975 0 18.5625C0 13.2715 4.00125 8.9595 9.1355 8.36825C9.58566 6.01506 10.8417 3.89228 12.6877 2.36502C14.5337 0.837753 16.8541 0.00146855 19.25 0C21.6462 0.00132457 23.9671 0.837498 25.8135 2.36473C27.6599 3.89197 28.9165 6.01482 29.3673 8.36825C34.5015 8.9595 38.4972 13.2715 38.4972 18.5625C38.4972 21.2975 37.4108 23.9206 35.4768 25.8545C33.5428 27.7885 30.9198 28.875 28.1847 28.875C27.9537 28.875 27.731 28.82 27.4972 28.8063V28.875H20.625Z" fill="#885EFF"/>
</svg>
