<svg width="17" height="17" viewBox="0 0 17 17" fill="none" xmlns="http://www.w3.org/2000/svg">
<path d="M8.33333 0C12.9358 0 16.6667 3.73083 16.6667 8.33333C16.6667 12.9358 12.9358 16.6667 8.33333 16.6667C3.73083 16.6667 0 12.9358 0 8.33333C0 3.73083 3.73083 0 8.33333 0ZM8.33333 3.33333C8.11232 3.33333 7.90036 3.42113 7.74408 3.57741C7.5878 3.73369 7.5 3.94565 7.5 4.16667V8.33333C7.50005 8.55433 7.58788 8.76626 7.74417 8.9225L10.2442 11.4225C10.4013 11.5743 10.6118 11.6583 10.8303 11.6564C11.0488 11.6545 11.2578 11.5669 11.4123 11.4123C11.5669 11.2578 11.6545 11.0488 11.6564 10.8303C11.6583 10.6118 11.5743 10.4013 11.4225 10.2442L9.16667 7.98833V4.16667C9.16667 3.94565 9.07887 3.73369 8.92259 3.57741C8.76631 3.42113 8.55435 3.33333 8.33333 3.33333Z" fill="#888888"/>
</svg>
