<svg width="17" height="17" viewBox="0 0 17 17" fill="none" xmlns="http://www.w3.org/2000/svg">
<path d="M8.33335 0C12.9358 0 16.6667 3.73083 16.6667 8.33333C16.6667 12.9358 12.9358 16.6667 8.33335 16.6667C6.86064 16.6692 5.41383 16.2795 4.14168 15.5375L0.00334621 16.6667L1.13001 12.5267C0.387478 11.2541 -0.00256802 9.80668 1.27239e-05 8.33333C1.27239e-05 3.73083 3.73085 0 8.33335 0ZM5.49335 4.41667L5.32668 4.42333C5.21892 4.43076 5.11364 4.45906 5.01668 4.50667C4.92633 4.55793 4.84381 4.62191 4.77168 4.69667C4.67168 4.79083 4.61501 4.8725 4.55418 4.95167C4.24595 5.35242 4.07999 5.84443 4.08251 6.35C4.08418 6.75833 4.19085 7.15583 4.35751 7.5275C4.69835 8.27917 5.25918 9.075 5.99918 9.8125C6.17751 9.99 6.35251 10.1683 6.54085 10.3342C7.46037 11.1437 8.55608 11.7275 9.74085 12.0392L10.2142 12.1117C10.3683 12.12 10.5225 12.1083 10.6775 12.1008C10.9202 12.088 11.1571 12.0223 11.3717 11.9083C11.4807 11.852 11.5872 11.7908 11.6908 11.725C11.6908 11.725 11.7261 11.7011 11.795 11.65C11.9075 11.5667 11.9767 11.5075 12.07 11.41C12.14 11.3378 12.1983 11.2539 12.245 11.1583C12.31 11.0225 12.375 10.7633 12.4017 10.5475C12.4217 10.3825 12.4158 10.2925 12.4133 10.2367C12.41 10.1475 12.3358 10.055 12.255 10.0158L11.77 9.79833C11.77 9.79833 11.045 9.4825 10.6017 9.28083C10.5553 9.26063 10.5056 9.24905 10.455 9.24667C10.398 9.2407 10.3404 9.24706 10.286 9.26532C10.2317 9.28358 10.1819 9.31331 10.14 9.3525C10.1358 9.35083 10.08 9.39833 9.47751 10.1283C9.44293 10.1748 9.3953 10.2099 9.34068 10.2292C9.28607 10.2485 9.22694 10.2511 9.17085 10.2367C9.11654 10.2222 9.06334 10.2038 9.01168 10.1817C8.90835 10.1383 8.87251 10.1217 8.80168 10.0917C8.32324 9.88326 7.88038 9.60123 7.48918 9.25583C7.38418 9.16417 7.28668 9.06417 7.18668 8.9675C6.85886 8.65351 6.57314 8.29832 6.33668 7.91083L6.28751 7.83167C6.25273 7.77816 6.22421 7.72084 6.20251 7.66083C6.17085 7.53833 6.25335 7.44 6.25335 7.44C6.25335 7.44 6.45585 7.21833 6.55001 7.09833C6.64168 6.98167 6.71918 6.86833 6.76918 6.7875C6.86751 6.62917 6.89835 6.46667 6.84668 6.34083C6.61335 5.77083 6.37223 5.20389 6.12335 4.64C6.07418 4.52833 5.92835 4.44833 5.79585 4.4325C5.75085 4.42694 5.70585 4.4225 5.66085 4.41917C5.54895 4.41275 5.43676 4.41386 5.32501 4.4225L5.49335 4.41667Z" fill="#9290B9"/>
</svg>
