<svg width="16" height="16" viewBox="0 0 16 16" fill="none" xmlns="http://www.w3.org/2000/svg">
<g clip-path="url(#clip0_1368_4118)">
<path fill-rule="evenodd" clip-rule="evenodd" d="M7.99935 1.99996C7.21142 1.99996 6.4312 2.15515 5.70325 2.45668C4.9753 2.75821 4.31386 3.20017 3.75671 3.75732C3.19956 4.31447 2.7576 4.97591 2.45607 5.70386C2.15454 6.43181 1.99935 7.21203 1.99935 7.99996C1.99935 8.78789 2.15454 9.56811 2.45607 10.2961C2.7576 11.024 3.19956 11.6854 3.75671 12.2426C4.31386 12.7998 4.9753 13.2417 5.70325 13.5432C6.4312 13.8448 7.21142 14 7.99935 14C9.59065 14 11.1168 13.3678 12.242 12.2426C13.3672 11.1174 13.9993 9.59126 13.9993 7.99996C13.9993 6.40866 13.3672 4.88254 12.242 3.75732C11.1168 2.6321 9.59065 1.99996 7.99935 1.99996ZM0.666016 7.99996C0.666016 3.94996 3.94935 0.666626 7.99935 0.666626C12.0493 0.666626 15.3327 3.94996 15.3327 7.99996C15.3327 12.05 12.0493 15.3333 7.99935 15.3333C3.94935 15.3333 0.666016 12.05 0.666016 7.99996Z" fill="#885EFF"/>
<path fill-rule="evenodd" clip-rule="evenodd" d="M11.7387 5.99992L6.588 11.1506L4 8.06192L5.00733 7.18858L6.658 9.19525L10.796 5.05725L11.7387 5.99992Z" fill="#885EFF"/>
</g>
<defs>
<clipPath id="clip0_1368_4118">
<rect width="16" height="16" fill="white"/>
</clipPath>
</defs>
</svg>
